<svg width="46" height="46" viewBox="0 0 46 46" fill="none" xmlns="http://www.w3.org/2000/svg">
<g clip-path="url(#clip0_86_4636)">
<path d="M10.0625 0.368336C9.93672 0.413258 9.73906 0.548023 9.63125 0.655836C9.18203 1.06912 9.16406 1.18591 9.16406 3.62068C9.16406 5.83982 9.17305 5.91169 9.3707 6.19919C9.64922 6.63044 10.0715 6.84607 10.6016 6.84607C11.1496 6.84607 11.5719 6.60349 11.8414 6.12732C12.0301 5.78591 12.0391 5.6781 12.0391 3.53084C12.0391 1.34763 12.0301 1.27576 11.8414 0.988258C11.7246 0.826539 11.527 0.610914 11.3922 0.512086C11.1137 0.305445 10.3949 0.224586 10.0625 0.368336Z" fill="#60BF8F"/>
<path d="M26.998 0.395289C26.6656 0.539039 26.3691 0.862476 26.2434 1.1949C26.1805 1.34763 26.1445 2.29998 26.1445 3.61169C26.1445 5.66912 26.1535 5.78591 26.3422 6.12732C26.6117 6.60349 27.034 6.84607 27.582 6.84607C28.3367 6.84607 28.8848 6.39685 29.0285 5.65115C29.1363 5.09412 29.1273 2.09334 29.0195 1.51834C28.8309 0.548023 27.8695 0.00896081 26.998 0.395289Z" fill="#60BF8F"/>
<path d="M2.74023 3.78242C1.37461 4.24961 0.395312 5.3457 0.0988281 6.72031C0.0449219 6.98086 0 7.92422 0 8.80469V10.4219H19.0918H38.1836V8.73281C38.1836 6.95391 38.1117 6.4957 37.7344 5.75C37.2582 4.80664 36.3957 4.07891 35.3805 3.75547C34.9223 3.6207 34.5359 3.59375 32.7031 3.59375H30.5648L30.5289 4.86953C30.502 5.94766 30.466 6.22617 30.3043 6.57656C30.0348 7.16953 29.4418 7.77148 28.8488 8.05898C28.4176 8.27461 28.2379 8.31055 27.582 8.31055C26.9711 8.31055 26.7375 8.26563 26.4051 8.10391C25.7312 7.77148 25.282 7.32227 24.9586 6.67539C24.6801 6.10039 24.6621 6.01953 24.6352 4.83359L24.5992 3.59375H19.0918H13.5844L13.5484 4.83359C13.5215 6.01953 13.5035 6.10039 13.225 6.67539C12.9016 7.32227 12.4434 7.78047 11.7785 8.10391C11.2035 8.39141 10.0266 8.39141 9.41562 8.11289C8.82266 7.84336 8.2207 7.25039 7.9332 6.65742C7.69961 6.19023 7.68164 6.05547 7.6457 4.86953L7.61875 3.59375H5.44453C3.50391 3.60273 3.22539 3.6207 2.74023 3.78242Z" fill="#60BF8F"/>
<path d="M0 23.557C0 31.1219 0.0359375 35.4074 0.0988281 35.659C0.458203 37.2492 1.82383 38.4801 3.45898 38.7226C4.07891 38.8125 27.3305 38.8574 27.4113 38.7676C27.4383 38.7496 27.4203 38.3722 27.3754 37.941C27.3305 37.4379 27.3395 36.8 27.4023 36.189C27.9234 31.032 32.1551 27.1508 37.3031 27.0969L38.1836 27.0879V19.4691V11.8594H19.0918H0V23.557ZM21.275 14.4109C25.6504 15.3633 28.9477 18.7773 29.6934 23.1258C29.8641 24.132 29.8641 25.8121 29.6934 26.7824C29.0016 30.7894 26.0187 34.1406 22.1465 35.2636C21.0234 35.5871 20.3227 35.6769 19.0469 35.6769C16.0641 35.6769 13.3148 34.491 11.2844 32.3437C9.23594 30.1695 8.26562 27.5371 8.38242 24.4914C8.47227 22.0117 9.3168 19.8465 10.943 17.9238C12.4344 16.1629 14.932 14.7433 17.1602 14.375C17.5285 14.3211 17.8969 14.2582 17.9687 14.2402C18.3012 14.1594 20.682 14.2851 21.275 14.4109Z" fill="#60BF8F"/>
<path d="M18.5078 15.6867C16.0461 15.9383 14.2941 16.7199 12.65 18.3102C11.4102 19.5051 10.5387 21.0144 10.0895 22.7125C9.8918 23.4492 9.85587 23.7816 9.85587 24.8867C9.85587 26.3242 9.96368 26.9531 10.4219 28.2379C10.7004 29.0105 11.4551 30.2953 12.0121 30.9512L12.2906 31.2926L12.3535 30.8523C12.3805 30.6098 12.4883 30.1426 12.5961 29.8102C13.1441 27.9953 14.8063 26.4949 16.684 26.0996C17.5285 25.9199 20.6551 25.9199 21.5176 26.0996C22.5508 26.3152 23.3863 26.7824 24.2219 27.618C25.0844 28.4805 25.5336 29.325 25.7672 30.5019L25.9199 31.2566L26.2254 30.8973C26.7734 30.2414 27.4742 29.0285 27.7617 28.2379C28.2289 26.9352 28.3367 26.3242 28.3277 24.8867C28.3277 23.7816 28.2918 23.4492 28.0852 22.6855C27.6719 21.1043 26.9352 19.7746 25.8301 18.6066C24.4465 17.1512 22.8473 16.2527 20.9516 15.8664C20.2957 15.7316 19.0109 15.6418 18.5078 15.6867ZM20.4305 17.7891C21.0594 18.0047 21.4367 18.2473 21.9758 18.7773C23.9703 20.7449 23.4043 24.0602 20.8527 25.318C20.1879 25.6504 20.1609 25.6504 19.1008 25.6504C18.0227 25.6504 18.0137 25.6504 17.3129 25.3C14.8512 24.0691 14.2313 20.8977 16.0641 18.9301C17.25 17.6633 18.8582 17.241 20.4305 17.7891Z" fill="#60BF8F"/>
<path d="M18.1754 19.1906C17.6543 19.3793 17.0434 19.9543 16.7649 20.5023C16.4863 21.0594 16.4504 21.9129 16.675 22.5687C17.1422 23.9523 18.8762 24.6262 20.2328 23.9613C21.1762 23.5031 21.6703 22.7035 21.6703 21.6344C21.6703 20.1699 20.5203 19.0289 19.0559 19.0558C18.7774 19.0558 18.382 19.1187 18.1754 19.1906Z" fill="#60BF8F"/>
<path d="M16.5762 27.6539C15.8215 27.9324 15.525 28.1211 14.977 28.6691C14.6355 29.0105 14.357 29.4059 14.1773 29.8012C13.9078 30.3762 13.8898 30.475 13.8898 31.5262L13.8809 32.6402L14.6176 33.0625C17.4027 34.6617 21.257 34.5809 23.9254 32.8648L24.3656 32.5863L24.3297 31.4992C24.3027 30.493 24.2758 30.3672 24.0152 29.8012C23.6289 28.9836 22.8563 28.2109 22.0387 27.8246L21.4277 27.5371L19.2266 27.5191C17.277 27.4922 16.9715 27.5102 16.5762 27.6539Z" fill="#60BF8F"/>
<path d="M35.8297 28.7051C33.898 29.0734 31.9215 30.2594 30.7176 31.7867C30.0617 32.6222 29.3609 34.0148 29.0914 34.9941C28.8129 36.0273 28.8129 38.2734 29.0914 39.2887C30.6187 44.823 36.764 47.3836 41.7324 44.5535C42.6668 44.0324 43.8887 42.8644 44.5535 41.8672C46.0539 39.6301 46.3953 36.8269 45.4789 34.2574C45.0836 33.1254 44.5176 32.2269 43.6281 31.2926C42.4422 30.0437 41.1574 29.2621 39.5762 28.8398C38.6328 28.5883 36.809 28.5164 35.8297 28.7051ZM41.7683 34.1855C42.0558 34.3293 42.1367 34.482 42.1367 34.8863C42.1367 35.1289 41.8492 35.4523 39.7379 37.5816C38.4082 38.9113 37.2133 40.0523 37.0785 40.1242C36.9348 40.2051 36.7371 40.232 36.6293 40.2051C36.5215 40.1691 35.5961 39.3066 34.5719 38.2914C32.8648 36.5933 32.7031 36.4047 32.7031 36.1262C32.7031 35.7039 32.9996 35.3984 33.4129 35.3984C33.7004 35.3984 33.8531 35.5332 35.2367 36.8988L36.7461 38.4082L38.7945 36.3777C39.9176 35.2547 40.9328 34.2754 41.0586 34.1945C41.3281 34.0148 41.4449 34.0148 41.7683 34.1855Z" fill="#60BF8F"/>
</g>
<defs>
<clipPath id="clip0_86_4636">
<rect width="46" height="46" fill="white"/>
</clipPath>
</defs>
</svg>
