<svg width="46" height="46" viewBox="0 0 46 46" fill="none" xmlns="http://www.w3.org/2000/svg">
<path d="M4.3125 8.98438C4.3125 7.74532 4.80471 6.55701 5.68086 5.68086C6.55701 4.80471 7.74532 4.3125 8.98438 4.3125H28.3906C29.6297 4.3125 30.818 4.80471 31.6941 5.68086C32.5703 6.55701 33.0625 7.74532 33.0625 8.98438V27.3125H41.6875V35.2188C41.6875 36.9344 41.006 38.5797 39.7928 39.7928C38.5797 41.006 36.9344 41.6875 35.2188 41.6875H10.7812C9.06563 41.6875 7.42028 41.006 6.20715 39.7928C4.99403 38.5797 4.3125 36.9344 4.3125 35.2188V8.98438ZM33.0625 38.8125H35.2188C36.1719 38.8125 37.086 38.4339 37.7599 37.7599C38.4339 37.086 38.8125 36.1719 38.8125 35.2188V30.1875H33.0625V38.8125ZM11.5 14.375C11.5 14.7562 11.6515 15.1219 11.921 15.3915C12.1906 15.661 12.5563 15.8125 12.9375 15.8125H24.4375C24.8187 15.8125 25.1844 15.661 25.454 15.3915C25.7236 15.1219 25.875 14.7562 25.875 14.375C25.875 13.9938 25.7236 13.6281 25.454 13.3585C25.1844 13.089 24.8187 12.9375 24.4375 12.9375H12.9375C12.5563 12.9375 12.1906 13.089 11.921 13.3585C11.6515 13.6281 11.5 13.9938 11.5 14.375ZM12.9375 21.5625C12.5563 21.5625 12.1906 21.714 11.921 21.9835C11.6515 22.2531 11.5 22.6188 11.5 23C11.5 23.3812 11.6515 23.7469 11.921 24.0165C12.1906 24.2861 12.5563 24.4375 12.9375 24.4375H24.4375C24.8187 24.4375 25.1844 24.2861 25.454 24.0165C25.7236 23.7469 25.875 23.3812 25.875 23C25.875 22.6188 25.7236 22.2531 25.454 21.9835C25.1844 21.714 24.8187 21.5625 24.4375 21.5625H12.9375ZM11.5 31.625C11.5 32.0062 11.6515 32.3719 11.921 32.6415C12.1906 32.9111 12.5563 33.0625 12.9375 33.0625H18.6875C19.0687 33.0625 19.4344 32.9111 19.704 32.6415C19.9735 32.3719 20.125 32.0062 20.125 31.625C20.125 31.2438 19.9735 30.8781 19.704 30.6085C19.4344 30.3389 19.0687 30.1875 18.6875 30.1875H12.9375C12.5563 30.1875 12.1906 30.3389 11.921 30.6085C11.6515 30.8781 11.5 31.2438 11.5 31.625Z" fill="#60BF8F"/>
</svg>
