<svg width="46" height="46" viewBox="0 0 46 46" fill="none" xmlns="http://www.w3.org/2000/svg">
<path d="M22.2812 10.0625H28.0312C28.4338 10.0625 28.75 10.3787 28.75 10.7812C28.75 11.1838 28.4338 11.5 28.0312 11.5H22.2812C21.8787 11.5 21.5625 11.1838 21.5625 10.7812C21.5625 10.3787 21.8787 10.0625 22.2812 10.0625Z" fill="#60BF8F"/>
<path d="M8.625 43.125H34.5V41.6731C34.5 40.8825 33.8675 40.25 33.0769 40.25H33.0625V24.4375C33.1272 24.4044 33.4434 24.4217 33.6404 24.4318L33.7813 24.4375C34.1838 24.4375 34.5 24.7537 34.5 25.1562V35.2188C34.5 36.4119 35.4631 37.375 36.6563 37.375C37.8494 37.375 38.8125 36.4119 38.8125 35.2188V14.3175C38.8131 14.2184 38.7915 14.1205 38.7492 14.0309C38.7069 13.9414 38.645 13.8624 38.5681 13.8L34.04 10.1919C33.6375 9.87563 33.0625 10.1775 33.0625 10.7094V5.73563C33.0625 4.15437 31.7831 2.875 30.2019 2.875H12.9231C11.3419 2.875 10.0625 4.15437 10.0625 5.73563V20.125H33.0625V10.7094C33.0625 10.81 33.0769 10.8962 33.12 10.9825L34.4425 13.8719C34.4856 13.9581 34.5 14.0588 34.5 14.145V18.6012C34.5 19.4494 35.1325 20.1106 35.9231 20.1106H37.375V35.2188C37.375 35.6213 37.0588 35.9375 36.6563 35.9375C36.2538 35.9375 35.9375 35.6213 35.9375 35.2188V25.1562C35.938 24.8649 35.8794 24.5765 35.7653 24.3085C35.6513 24.0404 35.4841 23.7983 35.2738 23.5966C35.0636 23.3949 34.8146 23.238 34.542 23.1352C34.2695 23.0324 33.9789 22.9859 33.6878 22.9986C33.5009 22.9957 33.1085 22.9885 33.0625 23V21.5625H10.0625V40.25C9.27188 40.25 8.625 40.8969 8.625 41.6875V43.125ZM14.4181 17.25C13.5988 17.25 12.9375 16.5888 12.9375 15.7694V8.625H30.1875V15.7694C30.1875 16.5888 29.5263 17.25 28.7069 17.25H14.4181ZM35.9519 17.825V15.5681C35.9519 14.9931 36.6131 14.7056 36.9869 15.1081L37.2025 15.3381C37.3175 15.4531 37.375 15.6256 37.375 15.7981V17.9616C37.3734 17.7839 37.3061 17.6132 37.1861 17.4822C37.0661 17.3513 36.9018 17.2694 36.7249 17.2524C36.5481 17.2355 36.3712 17.2846 36.2285 17.3903C36.0857 17.496 35.9872 17.6509 35.9519 17.825Z" fill="#60BF8F"/>
</svg>
