<svg width="46" height="46" viewBox="0 0 46 46" fill="none" xmlns="http://www.w3.org/2000/svg">
<path fill-rule="evenodd" clip-rule="evenodd" d="M6.74093 32.5833L20.2688 9.99925C20.5536 9.52999 20.9546 9.14204 21.433 8.8728C21.9114 8.60356 22.4511 8.46213 23 8.46213C23.549 8.46213 24.0887 8.60356 24.5671 8.8728C25.0454 9.14204 25.4464 9.52999 25.7313 9.99925L39.2591 32.5833C39.5378 33.0664 39.6852 33.614 39.6867 34.1717C39.6882 34.7294 39.5436 35.2778 39.2675 35.7623C38.9913 36.2469 38.5931 36.6507 38.1124 36.9336C37.6318 37.2165 37.0855 37.3687 36.5278 37.375H9.47218C8.91428 37.3693 8.36762 37.2174 7.88666 36.9346C7.4057 36.6519 7.00723 36.248 6.73094 35.7633C6.45465 35.2786 6.31018 34.7299 6.31194 34.172C6.31369 33.614 6.4616 33.0663 6.74093 32.5833ZM23 17.25C23.5083 17.25 23.9959 17.4519 24.3553 17.8114C24.7147 18.1708 24.9167 18.6583 24.9167 19.1667V24.9167C24.9167 25.425 24.7147 25.9125 24.3553 26.272C23.9959 26.6314 23.5083 26.8333 23 26.8333C22.4917 26.8333 22.0042 26.6314 21.6447 26.272C21.2853 25.9125 21.0833 25.425 21.0833 24.9167V19.1667C21.0833 18.6583 21.2853 18.1708 21.6447 17.8114C22.0042 17.4519 22.4917 17.25 23 17.25ZM21.0833 30.6667C21.0833 30.1583 21.2853 29.6708 21.6447 29.3114C22.0042 28.9519 22.4917 28.75 23 28.75H23.0153C23.5237 28.75 24.0112 28.9519 24.3706 29.3114C24.7301 29.6708 24.932 30.1583 24.932 30.6667C24.932 31.175 24.7301 31.6625 24.3706 32.022C24.0112 32.3814 23.5237 32.5833 23.0153 32.5833H23C22.4917 32.5833 22.0042 32.3814 21.6447 32.022C21.2853 31.6625 21.0833 31.175 21.0833 30.6667Z" fill="#60BF8F"/>
</svg>
