<svg width="46" height="46" viewBox="0 0 46 46" fill="none" xmlns="http://www.w3.org/2000/svg">
<path d="M19.9094 0.134762C19.1996 0.386325 18.6066 1.2039 18.5977 1.93164C18.5977 2.56953 18.7684 2.98281 19.2266 3.42304C20.152 4.32148 21.5355 4.18672 22.2453 3.12656C23.3324 1.50937 21.7422 -0.521097 19.9094 0.134762Z" fill="#60BF8F"/>
<path d="M9.41563 3.76445L7.29531 5.91172L6.72031 5.33672C6.06445 4.68086 5.83984 4.62695 5.39961 4.99531C5.18398 5.175 5.12109 5.30078 5.12109 5.55234C5.12109 5.83984 5.21094 5.96563 6.04648 6.80117C6.80117 7.55586 7.0168 7.72656 7.24141 7.72656C7.46602 7.72656 7.88828 7.34922 10.0895 5.18398C12.4523 2.86602 12.677 2.62344 12.668 2.35391C12.668 1.94063 12.3266 1.61719 11.8863 1.61719C11.5629 1.61719 11.4551 1.69805 9.41563 3.76445Z" fill="#60BF8F"/>
<path d="M6.31601 1.93164C3.83632 2.4707 2.20117 5.07617 2.83007 7.48398C3.03672 8.29258 3.38711 8.88555 4.03398 9.53242C4.96836 10.4668 6.01953 10.898 7.32226 10.8891C8.60703 10.8891 9.72109 10.4039 10.5836 9.4875C11.4191 8.58906 11.8594 7.55586 11.8594 6.50469C11.8594 6.12734 11.8144 6.00156 11.6258 5.80391C11.3293 5.50742 10.9609 5.49844 10.6375 5.77695C10.4398 5.94766 10.3769 6.10039 10.323 6.59453C10.2242 7.36719 9.97265 7.94219 9.49648 8.42734C8.27461 9.69414 6.21718 9.67617 5.04023 8.40039C4.43828 7.74453 4.26757 7.28633 4.26757 6.33398C4.26757 5.65117 4.30351 5.45352 4.50117 5.03125C4.77968 4.44727 5.36367 3.84531 5.90273 3.58477C6.10937 3.48594 6.58554 3.35117 6.9539 3.28828C7.72656 3.14453 7.77148 3.12656 7.95117 2.77617C8.06797 2.55156 8.07695 2.4707 7.97812 2.27305C7.75351 1.79688 7.32226 1.71602 6.31601 1.93164Z" fill="#60BF8F"/>
<path d="M19.4332 6.23516C17.277 6.64844 15.9832 8.21172 15.9562 10.4578L15.9473 11.1586L16.3695 11.5359C17.1152 12.2187 18.6066 12.5781 20.6461 12.5781C22.8473 12.5781 24.5094 12.102 25.1023 11.2934C25.2551 11.0867 25.282 10.934 25.2641 10.4398C25.1742 8.3375 24.0512 6.81016 22.2363 6.33398C21.4637 6.13633 20.1969 6.09141 19.4332 6.23516Z" fill="#60BF8F"/>
<path d="M29.7832 6.96289C29.4059 7.33125 29.5137 7.8793 30.0078 8.13086C30.2324 8.24766 30.9332 8.26562 34.8055 8.26562C39.675 8.26562 39.702 8.26562 39.9445 7.80742C40.1242 7.45703 40.1062 7.33125 39.8367 7.0168L39.6031 6.73828H34.8055H29.9988L29.7832 6.96289Z" fill="#60BF8F"/>
<path d="M29.873 9.92773C29.5766 10.2152 29.5676 10.7633 29.8371 11.0148C30.0168 11.1766 30.2594 11.1855 36.4496 11.1855H42.8734L43.0891 10.934C43.3766 10.6016 43.3676 10.2422 43.0711 9.93672L42.8285 9.70312H36.4586H30.0887L29.873 9.92773Z" fill="#60BF8F"/>
<path d="M19.8555 16.8098C19.1457 17.0973 18.5977 17.9148 18.5977 18.6965C18.5977 19.2715 18.984 20.0082 19.4781 20.3496C19.7926 20.5652 19.9723 20.6191 20.4754 20.6461C21.2031 20.691 21.6254 20.5113 22.1195 19.9633C22.982 19.0109 22.6586 17.4926 21.4727 16.8906C21.0863 16.693 20.2508 16.657 19.8555 16.8098Z" fill="#60BF8F"/>
<path d="M9.32578 20.4574L7.19648 22.5867L6.65742 22.0746C6.11836 21.5625 5.84883 21.4637 5.43555 21.6164C5.21992 21.7062 5.0043 22.1734 5.07617 22.443C5.10312 22.5687 5.49844 23.0539 5.94766 23.5121C6.82812 24.4016 7.13359 24.5543 7.61875 24.3566C7.7625 24.2937 8.94844 23.1707 10.2691 21.85C12.4344 19.6758 12.668 19.4152 12.668 19.1457C12.668 18.7234 12.2547 18.3281 11.8055 18.3281C11.482 18.3281 11.3652 18.427 9.32578 20.4574Z" fill="#60BF8F"/>
<path d="M6.11836 18.6516C3.19844 19.4332 1.79687 22.8293 3.3332 25.3898C3.70156 26.0008 4.55508 26.8184 5.175 27.1508C6.98086 28.1301 9.36172 27.6898 10.7273 26.1266C11.4281 25.327 11.8594 24.2488 11.8594 23.2875C11.8594 22.6945 11.5988 22.3711 11.1137 22.3711C10.6555 22.3711 10.4039 22.6945 10.323 23.4043C10.1883 24.5184 9.58633 25.3809 8.63398 25.848C8.19375 26.0727 8.03203 26.0996 7.27734 26.0996C6.56758 26.0996 6.35195 26.0637 6.01055 25.893C5.37266 25.5785 4.91445 25.1383 4.58203 24.5094C4.29453 23.9883 4.26758 23.8805 4.26758 23.1348C4.26758 22.452 4.30351 22.2543 4.50117 21.832C4.62695 21.5535 4.86953 21.1852 5.02226 20.9965C5.39961 20.5742 6.28906 20.134 6.91797 20.0621C7.55586 19.9902 7.86133 19.8285 7.97812 19.5141C8.08594 19.1996 7.92422 18.7504 7.6457 18.6066C7.40312 18.4719 6.70234 18.4898 6.11836 18.6516Z" fill="#60BF8F"/>
<path d="M19.2445 23.0449C18.1305 23.2875 17.2859 23.8266 16.702 24.6711C16.3605 25.1652 16.0191 26.2164 15.9473 27.007C15.8754 27.7527 15.9922 28.0582 16.4773 28.4355C18.2742 29.8012 23.9254 29.6035 25.0484 28.1391C25.2461 27.8785 25.273 27.7617 25.2641 27.2316C25.2191 25.5066 24.3656 24.0332 23.0629 23.4133C22.0297 22.9281 20.4754 22.7754 19.2445 23.0449Z" fill="#60BF8F"/>
<path d="M30.0977 23.5121C29.5496 23.7098 29.3879 24.3656 29.7832 24.752L29.9988 24.9766H34.8055H39.6031L39.8367 24.698C40.1063 24.3836 40.1242 24.2578 39.9445 23.9074C39.702 23.4492 39.684 23.4492 34.7875 23.4582C32.2809 23.4582 30.1695 23.4852 30.0977 23.5121Z" fill="#60BF8F"/>
<path d="M30.1336 26.5039C29.6394 26.7016 29.5047 27.3574 29.873 27.7168L30.0887 27.9414H36.4766H42.8644L43.0801 27.7168C43.3226 27.4832 43.3676 27.1508 43.2059 26.8453C42.9723 26.4141 42.9184 26.4141 36.4137 26.423C33.0625 26.423 30.2324 26.459 30.1336 26.5039Z" fill="#60BF8F"/>
<path d="M19.9992 33.5477C18.8941 33.9609 18.3281 35.1109 18.7234 36.1531C18.9031 36.6293 19.5141 37.2223 19.9902 37.375C21.3469 37.8242 22.8023 36.5934 22.5867 35.1738C22.416 33.9789 21.0773 33.1523 19.9992 33.5477Z" fill="#60BF8F"/>
<path d="M11.5898 35.1019C11.518 35.1289 10.4938 36.0992 9.32578 37.2672L7.1875 39.3965L6.64844 38.8574C6.19922 38.4082 6.06445 38.3273 5.79492 38.3273C5.40859 38.3273 5.14805 38.5609 5.06719 38.9832C5.0043 39.2797 5.03125 39.3156 5.93867 40.1781C6.45078 40.6723 6.96289 41.1125 7.07969 41.1574C7.21445 41.2113 7.38516 41.1934 7.58281 41.1125C7.95117 40.9598 12.5691 36.3328 12.641 36.0453C12.7758 35.4973 12.1289 34.9133 11.5898 35.1019Z" fill="#60BF8F"/>
<path d="M5.83984 35.5152C3.97109 36.1531 2.69531 37.9051 2.69531 39.8457C2.7043 43.2687 6.21719 45.4609 9.3168 43.9695C10.7723 43.2777 11.8594 41.5977 11.8594 40.0434C11.8594 39.684 11.8145 39.5672 11.5988 39.3426C11.3023 39.0461 11.1496 39.0281 10.7902 39.2168C10.4937 39.3605 10.368 39.657 10.2961 40.3219C10.1973 41.3012 9.47852 42.2445 8.48125 42.6937C7.82539 42.9902 6.69336 42.9812 6.01953 42.6668C5.37266 42.3613 4.80664 41.7953 4.51016 41.1664C4.30352 40.7262 4.26758 40.5285 4.26758 39.8457C4.26758 39.1449 4.30352 38.9742 4.51914 38.534C4.98633 37.5816 5.8668 36.9707 6.98984 36.8359C7.43008 36.782 7.62773 36.7102 7.79844 36.5305C8.09492 36.243 8.09492 35.8297 7.81641 35.5332C7.63672 35.3355 7.52891 35.3086 7.0168 35.3086C6.64844 35.3086 6.2082 35.3895 5.83984 35.5152Z" fill="#60BF8F"/>
<path d="M19.0469 39.7648C17.3848 40.2051 16.3695 41.3191 16.0371 43.0621C15.7676 44.4727 15.9113 44.85 16.8906 45.3531C17.7621 45.7934 18.9031 46 20.5383 46C23.1617 46 24.7879 45.4789 25.2102 44.5086C25.327 44.2211 25.2641 43.3137 25.0574 42.559C24.6891 41.1754 23.6109 40.1422 22.1375 39.7648C21.4277 39.5852 19.7297 39.5852 19.0469 39.7648Z" fill="#60BF8F"/>
<path d="M29.7922 40.3848C29.4687 40.6812 29.4777 41.0855 29.8191 41.427L30.0797 41.6875H34.8144H39.5492L39.8098 41.427C40.1512 41.0855 40.1512 40.7621 39.8098 40.4207L39.5492 40.1602H34.7875H30.0348L29.7922 40.3848Z" fill="#60BF8F"/>
<path d="M29.9269 43.4484C29.5586 43.7539 29.5406 44.2031 29.882 44.5176L30.1246 44.7422H36.4496H42.7836L43.0441 44.4816C43.4484 44.0773 43.3766 43.5832 42.8824 43.3227C42.7387 43.2418 41.0226 43.2148 36.4406 43.2148H30.2055L29.9269 43.4484Z" fill="#60BF8F"/>
</svg>
