<svg width="22" height="22" viewBox="0 0 22 22" fill="none" xmlns="http://www.w3.org/2000/svg">
<g filter="url(#filter0_d_3485_204)">
<path d="M4.5 2.125C4.5 1.69402 4.6712 1.2807 4.97595 0.975951C5.2807 0.671205 5.69402 0.5 6.125 0.5H12.875C13.306 0.5 13.7193 0.671205 14.024 0.975951C14.3288 1.2807 14.5 1.69402 14.5 2.125V8.5H17.5V11.25C17.5 11.8467 17.2629 12.419 16.841 12.841C16.419 13.2629 15.8467 13.5 15.25 13.5H6.75C6.15326 13.5 5.58097 13.2629 5.15901 12.841C4.73705 12.419 4.5 11.8467 4.5 11.25V2.125ZM14.5 12.5H15.25C15.5815 12.5 15.8995 12.3683 16.1339 12.1339C16.3683 11.8995 16.5 11.5815 16.5 11.25V9.5H14.5V12.5ZM6.125 1.5C5.78 1.5 5.5 1.78 5.5 2.125V11.25C5.5 11.5815 5.6317 11.8995 5.86612 12.1339C6.10054 12.3683 6.41848 12.5 6.75 12.5H13.5V2.125C13.5 1.78 13.22 1.5 12.875 1.5H6.125ZM7.5 3.5C7.36739 3.5 7.24021 3.55268 7.14645 3.64645C7.05268 3.74021 7 3.86739 7 4C7 4.13261 7.05268 4.25979 7.14645 4.35355C7.24021 4.44732 7.36739 4.5 7.5 4.5H11.5C11.6326 4.5 11.7598 4.44732 11.8536 4.35355C11.9473 4.25979 12 4.13261 12 4C12 3.86739 11.9473 3.74021 11.8536 3.64645C11.7598 3.55268 11.6326 3.5 11.5 3.5H7.5ZM7 7C7 6.86739 7.05268 6.74021 7.14645 6.64645C7.24021 6.55268 7.36739 6.5 7.5 6.5H11.5C11.6326 6.5 11.7598 6.55268 11.8536 6.64645C11.9473 6.74021 12 6.86739 12 7C12 7.13261 11.9473 7.25979 11.8536 7.35355C11.7598 7.44732 11.6326 7.5 11.5 7.5H7.5C7.36739 7.5 7.24021 7.44732 7.14645 7.35355C7.05268 7.25979 7 7.13261 7 7ZM7.5 9.5C7.36739 9.5 7.24021 9.55268 7.14645 9.64645C7.05268 9.74021 7 9.86739 7 10C7 10.1326 7.05268 10.2598 7.14645 10.3536C7.24021 10.4473 7.36739 10.5 7.5 10.5H9.5C9.63261 10.5 9.75979 10.4473 9.85355 10.3536C9.94732 10.2598 10 10.1326 10 10C10 9.86739 9.94732 9.74021 9.85355 9.64645C9.75979 9.55268 9.63261 9.5 9.5 9.5H7.5Z" fill="black"/>
</g>
<defs>
<filter id="filter0_d_3485_204" x="0.5" y="0.5" width="21" height="21" filterUnits="userSpaceOnUse" color-interpolation-filters="sRGB">
<feFlood flood-opacity="0" result="BackgroundImageFix"/>
<feColorMatrix in="SourceAlpha" type="matrix" values="0 0 0 0 0 0 0 0 0 0 0 0 0 0 0 0 0 0 127 0" result="hardAlpha"/>
<feOffset dy="4"/>
<feGaussianBlur stdDeviation="2"/>
<feComposite in2="hardAlpha" operator="out"/>
<feColorMatrix type="matrix" values="0 0 0 0 0 0 0 0 0 0 0 0 0 0 0 0 0 0 0.25 0"/>
<feBlend mode="normal" in2="BackgroundImageFix" result="effect1_dropShadow_3485_204"/>
<feBlend mode="normal" in="SourceGraphic" in2="effect1_dropShadow_3485_204" result="shape"/>
</filter>
</defs>
</svg>
