<svg width="18" height="18" viewBox="0 0 18 18" fill="none" xmlns="http://www.w3.org/2000/svg">
<path d="M2.625 3.75C2.625 3.25272 2.82254 2.77581 3.17417 2.42417C3.52581 2.07254 4.00272 1.875 4.5 1.875H12C12.4973 1.875 12.9742 2.07254 13.3258 2.42417C13.6775 2.77581 13.875 3.25272 13.875 3.75V7.875C13.875 7.97446 13.8355 8.06984 13.7652 8.14017C13.6948 8.21049 13.5995 8.25 13.5 8.25C13.4005 8.25 13.3052 8.21049 13.2348 8.14017C13.1645 8.06984 13.125 7.97446 13.125 7.875V3.75C13.125 3.45163 13.0065 3.16548 12.7955 2.9545C12.5845 2.74353 12.2984 2.625 12 2.625H4.5C4.20163 2.625 3.91548 2.74353 3.7045 2.9545C3.49353 3.16548 3.375 3.45163 3.375 3.75V14.5365C3.375 14.6004 3.39136 14.6633 3.42251 14.7192C3.45367 14.775 3.49858 14.822 3.553 14.8556C3.60741 14.8892 3.66951 14.9083 3.73339 14.9111C3.79728 14.914 3.86083 14.9004 3.918 14.8718L4.668 14.4968C4.85482 14.4035 5.06391 14.364 5.27187 14.3828C5.47983 14.4017 5.67845 14.478 5.8455 14.6033L6.525 15.1125C6.58991 15.1612 6.66886 15.1875 6.75 15.1875C6.83114 15.1875 6.91009 15.1612 6.975 15.1125L7.6215 14.6273C7.80043 14.4931 8.0153 14.4153 8.23866 14.4038C8.46203 14.3923 8.68374 14.4476 8.8755 14.5627L9.38025 14.8657C9.46558 14.9169 9.52711 14.9998 9.55131 15.0963C9.5755 15.1928 9.56037 15.2949 9.50925 15.3802C9.45813 15.4656 9.3752 15.5271 9.27872 15.5513C9.18223 15.5755 9.08008 15.5604 8.99475 15.5093L8.48925 15.2062C8.42541 15.1679 8.35158 15.1494 8.27718 15.1531C8.20277 15.1568 8.13117 15.1827 8.0715 15.2272L7.425 15.7125C7.23027 15.8586 6.99342 15.9375 6.75 15.9375C6.50658 15.9375 6.26973 15.8586 6.075 15.7125L5.3955 15.2025C5.33975 15.1609 5.27354 15.1357 5.20427 15.1296C5.135 15.1235 5.0654 15.1368 5.00325 15.168L4.25325 15.543C4.08171 15.6288 3.89107 15.6693 3.69946 15.6607C3.50785 15.6521 3.32162 15.5946 3.15847 15.4938C2.99532 15.3929 2.86067 15.252 2.7673 15.0845C2.67393 14.9169 2.62494 14.7283 2.625 14.5365V3.75Z" fill="#545454"/>
<path d="M4.875 5.25C4.875 5.15054 4.91451 5.05516 4.98484 4.98484C5.05516 4.91451 5.15054 4.875 5.25 4.875H10.125C10.2245 4.875 10.3198 4.91451 10.3902 4.98484C10.4605 5.05516 10.5 5.15054 10.5 5.25C10.5 5.34946 10.4605 5.44484 10.3902 5.51516C10.3198 5.58549 10.2245 5.625 10.125 5.625H5.25C5.15054 5.625 5.05516 5.58549 4.98484 5.51516C4.91451 5.44484 4.875 5.34946 4.875 5.25ZM4.875 7.5C4.875 7.40054 4.91451 7.30516 4.98484 7.23483C5.05516 7.16451 5.15054 7.125 5.25 7.125H11.25C11.3495 7.125 11.4448 7.16451 11.5152 7.23483C11.5855 7.30516 11.625 7.40054 11.625 7.5C11.625 7.59946 11.5855 7.69484 11.5152 7.76517C11.4448 7.83549 11.3495 7.875 11.25 7.875H5.25C5.15054 7.875 5.05516 7.83549 4.98484 7.76517C4.91451 7.69484 4.875 7.59946 4.875 7.5ZM4.875 9.75C4.875 9.65054 4.91451 9.55516 4.98484 9.48483C5.05516 9.41451 5.15054 9.375 5.25 9.375H7.875C7.97446 9.375 8.06984 9.41451 8.14017 9.48483C8.21049 9.55516 8.25 9.65054 8.25 9.75C8.25 9.84946 8.21049 9.94484 8.14017 10.0152C8.06984 10.0855 7.97446 10.125 7.875 10.125H5.25C5.15054 10.125 5.05516 10.0855 4.98484 10.0152C4.91451 9.94484 4.875 9.84946 4.875 9.75ZM4.875 12C4.875 11.9005 4.91451 11.8052 4.98484 11.7348C5.05516 11.6645 5.15054 11.625 5.25 11.625H7.875C7.97446 11.625 8.06984 11.6645 8.14017 11.7348C8.21049 11.8052 8.25 11.9005 8.25 12C8.25 12.0995 8.21049 12.1948 8.14017 12.2652C8.06984 12.3355 7.97446 12.375 7.875 12.375H5.25C5.15054 12.375 5.05516 12.3355 4.98484 12.2652C4.91451 12.1948 4.875 12.0995 4.875 12ZM13.125 10.875C12.5283 10.875 11.956 11.1121 11.534 11.534C11.1121 11.956 10.875 12.5283 10.875 13.125C10.875 13.7217 11.1121 14.294 11.534 14.716C11.956 15.1379 12.5283 15.375 13.125 15.375C13.7217 15.375 14.294 15.1379 14.716 14.716C15.1379 14.294 15.375 13.7217 15.375 13.125C15.375 12.5283 15.1379 11.956 14.716 11.534C14.294 11.1121 13.7217 10.875 13.125 10.875ZM10.125 13.125C10.125 12.3294 10.4411 11.5663 11.0037 11.0037C11.5663 10.4411 12.3294 10.125 13.125 10.125C13.9206 10.125 14.6837 10.4411 15.2463 11.0037C15.8089 11.5663 16.125 12.3294 16.125 13.125C16.125 13.9206 15.8089 14.6837 15.2463 15.2463C14.6837 15.8089 13.9206 16.125 13.125 16.125C12.3294 16.125 11.5663 15.8089 11.0037 15.2463C10.4411 14.6837 10.125 13.9206 10.125 13.125ZM14.3745 12.2032C14.4094 12.2381 14.4371 12.2795 14.456 12.325C14.4749 12.3706 14.4847 12.4194 14.4847 12.4688C14.4847 12.5181 14.4749 12.5669 14.456 12.6125C14.4371 12.658 14.4094 12.6994 14.3745 12.7343L12.7965 14.3115L11.8755 13.3905C11.8406 13.3557 11.813 13.3143 11.7941 13.2688C11.7752 13.2233 11.7655 13.1745 11.7654 13.1253C11.7654 13.076 11.7751 13.0272 11.7939 12.9817C11.8127 12.9361 11.8403 12.8947 11.8751 12.8599C11.9454 12.7895 12.0408 12.7499 12.1404 12.7498C12.1896 12.7498 12.2384 12.7594 12.284 12.7783C12.3295 12.7971 12.3709 12.8247 12.4058 12.8595L12.7965 13.251L13.8442 12.2032C13.9146 12.1329 14.0099 12.0935 14.1094 12.0935C14.2088 12.0935 14.3042 12.1329 14.3745 12.2032Z" fill="black"/>
</svg>
