<svg width="20" height="20" viewBox="0 0 20 20" fill="none" xmlns="http://www.w3.org/2000/svg">
<path d="M2.91675 4.16671C2.91675 3.61417 3.13624 3.08427 3.52694 2.69357C3.91764 2.30287 4.44755 2.08337 5.00008 2.08337H13.3334C13.8859 2.08337 14.4159 2.30287 14.8066 2.69357C15.1973 3.08427 15.4167 3.61417 15.4167 4.16671V8.75004C15.4167 8.86055 15.3728 8.96653 15.2947 9.04467C15.2166 9.12281 15.1106 9.16671 15.0001 9.16671C14.8896 9.16671 14.7836 9.12281 14.7055 9.04467C14.6273 8.96653 14.5834 8.86055 14.5834 8.75004V4.16671C14.5834 3.83519 14.4517 3.51724 14.2173 3.28282C13.9829 3.0484 13.6649 2.91671 13.3334 2.91671H5.00008C4.66856 2.91671 4.35062 3.0484 4.1162 3.28282C3.88178 3.51724 3.75008 3.83519 3.75008 4.16671V16.1517C3.75008 16.2228 3.76826 16.2926 3.80287 16.3547C3.83749 16.4167 3.8874 16.4689 3.94786 16.5062C4.00831 16.5436 4.07731 16.5648 4.1483 16.568C4.21928 16.5711 4.28989 16.556 4.35341 16.5242L5.18675 16.1075C5.39432 16.0039 5.62665 15.9601 5.85771 15.981C6.08878 16.0019 6.30947 16.0867 6.49508 16.2259L7.25008 16.7917C7.3222 16.8458 7.40993 16.875 7.50008 16.875C7.59024 16.875 7.67796 16.8458 7.75008 16.7917L8.46841 16.2525C8.66723 16.1034 8.90597 16.017 9.15415 16.0042C9.40233 15.9915 9.64869 16.053 9.86175 16.1809L10.4226 16.5175C10.5174 16.5743 10.5858 16.6665 10.6126 16.7737C10.6395 16.8809 10.6227 16.9944 10.5659 17.0892C10.5091 17.184 10.417 17.2524 10.3098 17.2793C10.2026 17.3062 10.0891 17.2893 9.99425 17.2325L9.43258 16.8959C9.36165 16.8532 9.27961 16.8327 9.19694 16.8368C9.11427 16.841 9.03472 16.8697 8.96841 16.9192L8.25008 17.4584C8.03371 17.6207 7.77054 17.7084 7.50008 17.7084C7.22962 17.7084 6.96645 17.6207 6.75008 17.4584L5.99508 16.8917C5.93313 16.8455 5.85957 16.8175 5.7826 16.8107C5.70564 16.804 5.62831 16.8187 5.55925 16.8534L4.72591 17.27C4.53531 17.3654 4.3235 17.4104 4.11059 17.4008C3.89769 17.3912 3.69077 17.3274 3.5095 17.2153C3.32822 17.1033 3.1786 16.9467 3.07485 16.7606C2.97111 16.5744 2.91668 16.3648 2.91675 16.1517V4.16671Z" fill="#C8C8C8"/>
<path d="M5.41675 5.83329C5.41675 5.72279 5.46065 5.61681 5.53879 5.53866C5.61693 5.46052 5.72291 5.41663 5.83341 5.41663H11.2501C11.3606 5.41663 11.4666 5.46052 11.5447 5.53866C11.6228 5.61681 11.6667 5.72279 11.6667 5.83329C11.6667 5.9438 11.6228 6.04978 11.5447 6.12792C11.4666 6.20606 11.3606 6.24996 11.2501 6.24996H5.83341C5.72291 6.24996 5.61693 6.20606 5.53879 6.12792C5.46065 6.04978 5.41675 5.9438 5.41675 5.83329ZM5.41675 8.33329C5.41675 8.22279 5.46065 8.1168 5.53879 8.03866C5.61693 7.96052 5.72291 7.91663 5.83341 7.91663H12.5001C12.6106 7.91663 12.7166 7.96052 12.7947 8.03866C12.8728 8.1168 12.9167 8.22279 12.9167 8.33329C12.9167 8.4438 12.8728 8.54978 12.7947 8.62792C12.7166 8.70606 12.6106 8.74996 12.5001 8.74996H5.83341C5.72291 8.74996 5.61693 8.70606 5.53879 8.62792C5.46065 8.54978 5.41675 8.4438 5.41675 8.33329ZM5.41675 10.8333C5.41675 10.7228 5.46065 10.6168 5.53879 10.5387C5.61693 10.4605 5.72291 10.4166 5.83341 10.4166H8.75008C8.86059 10.4166 8.96657 10.4605 9.04471 10.5387C9.12285 10.6168 9.16675 10.7228 9.16675 10.8333C9.16675 10.9438 9.12285 11.0498 9.04471 11.1279C8.96657 11.2061 8.86059 11.25 8.75008 11.25H5.83341C5.72291 11.25 5.61693 11.2061 5.53879 11.1279C5.46065 11.0498 5.41675 10.9438 5.41675 10.8333ZM5.41675 13.3333C5.41675 13.2228 5.46065 13.1168 5.53879 13.0387C5.61693 12.9605 5.72291 12.9166 5.83341 12.9166H8.75008C8.86059 12.9166 8.96657 12.9605 9.04471 13.0387C9.12285 13.1168 9.16675 13.2228 9.16675 13.3333C9.16675 13.4438 9.12285 13.5498 9.04471 13.6279C8.96657 13.7061 8.86059 13.75 8.75008 13.75H5.83341C5.72291 13.75 5.61693 13.7061 5.53879 13.6279C5.46065 13.5498 5.41675 13.4438 5.41675 13.3333ZM14.5834 12.0833C13.9204 12.0833 13.2845 12.3467 12.8156 12.8155C12.3468 13.2844 12.0834 13.9203 12.0834 14.5833C12.0834 15.2463 12.3468 15.8822 12.8156 16.3511C13.2845 16.8199 13.9204 17.0833 14.5834 17.0833C15.2465 17.0833 15.8823 16.8199 16.3512 16.3511C16.82 15.8822 17.0834 15.2463 17.0834 14.5833C17.0834 13.9203 16.82 13.2844 16.3512 12.8155C15.8823 12.3467 15.2465 12.0833 14.5834 12.0833ZM11.2501 14.5833C11.2501 13.6992 11.6013 12.8514 12.2264 12.2263C12.8515 11.6011 13.6994 11.25 14.5834 11.25C15.4675 11.25 16.3153 11.6011 16.9404 12.2263C17.5656 12.8514 17.9167 13.6992 17.9167 14.5833C17.9167 15.4673 17.5656 16.3152 16.9404 16.9403C16.3153 17.5654 15.4675 17.9166 14.5834 17.9166C13.6994 17.9166 12.8515 17.5654 12.2264 16.9403C11.6013 16.3152 11.2501 15.4673 11.2501 14.5833ZM15.9717 13.5591C16.0106 13.5978 16.0413 13.6438 16.0623 13.6944C16.0833 13.7451 16.0942 13.7993 16.0942 13.8541C16.0942 13.9089 16.0833 13.9632 16.0623 14.0138C16.0413 14.0644 16.0106 14.1104 15.9717 14.1491L14.2184 15.9016L13.1951 14.8783C13.1563 14.8396 13.1256 14.7937 13.1046 14.7431C13.0836 14.6925 13.0728 14.6383 13.0728 14.5836C13.0727 14.5288 13.0835 14.4746 13.1044 14.424C13.1253 14.3734 13.156 14.3274 13.1947 14.2887C13.2728 14.2105 13.3788 14.1665 13.4894 14.1664C13.5441 14.1664 13.5983 14.1771 13.6489 14.198C13.6995 14.2189 13.7455 14.2496 13.7842 14.2883L14.2184 14.7233L15.3826 13.5591C15.4607 13.481 15.5667 13.4371 15.6772 13.4371C15.7876 13.4371 15.8936 13.481 15.9717 13.5591Z" fill="#C8C8C8"/>
</svg>
