<svg width="54" height="54" viewBox="0 0 54 54" fill="none" xmlns="http://www.w3.org/2000/svg">
<circle cx="27" cy="27" r="25.5" fill="#2D9C67" stroke="#F7F7F7" stroke-width="3"/>
<path d="M32.133 27.632V25.832C32.1337 24.6154 31.724 23.4342 30.9702 22.4793C30.2163 21.5245 29.1625 20.8518 27.979 20.57C27.9879 20.5351 27.9949 20.4997 28 20.464V18.1C28 17.8348 27.8946 17.5804 27.7071 17.3929C27.5196 17.2054 27.2652 17.1 27 17.1C26.7348 17.1 26.4804 17.2054 26.2929 17.3929C26.1054 17.5804 26 17.8348 26 18.1V20.464C26.0051 20.4997 26.0121 20.5351 26.021 20.57C24.8375 20.8518 23.7837 21.5245 23.0298 22.4793C22.276 23.4342 21.8663 24.6154 21.867 25.832V27.632C21.867 30.018 20 30.614 20 31.807C20 32.4 20 33 20.538 33H33.462C34 33 34 32.4 34 31.807C34 30.614 32.133 30.018 32.133 27.632ZM21 21C20.7348 20.9999 20.4805 20.8946 20.293 20.707L19.293 19.707C19.1108 19.5184 19.01 19.2658 19.0123 19.0036C19.0146 18.7414 19.1198 18.4906 19.3052 18.3052C19.4906 18.1198 19.7414 18.0146 20.0036 18.0123C20.2658 18.0101 20.5184 18.1108 20.707 18.293L21.707 19.293C21.8468 19.4329 21.942 19.611 21.9806 19.805C22.0192 19.9989 21.9993 20.2 21.9237 20.3827C21.848 20.5654 21.7199 20.7215 21.5555 20.8314C21.391 20.9413 21.1978 21 21 21ZM19 25H18C17.7348 25 17.4804 24.8946 17.2929 24.7071C17.1054 24.5196 17 24.2652 17 24C17 23.7348 17.1054 23.4804 17.2929 23.2929C17.4804 23.1054 17.7348 23 18 23H19C19.2652 23 19.5196 23.1054 19.7071 23.2929C19.8946 23.4804 20 23.7348 20 24C20 24.2652 19.8946 24.5196 19.7071 24.7071C19.5196 24.8946 19.2652 25 19 25ZM33 21C32.8022 21 32.609 20.9413 32.4445 20.8314C32.2801 20.7215 32.152 20.5654 32.0763 20.3827C32.0007 20.2 31.9808 19.9989 32.0194 19.805C32.058 19.611 32.1532 19.4329 32.293 19.293L33.293 18.293C33.3852 18.1975 33.4956 18.1213 33.6176 18.0689C33.7396 18.0165 33.8708 17.9889 34.0036 17.9878C34.1364 17.9866 34.2681 18.0119 34.391 18.0622C34.5138 18.1125 34.6255 18.1867 34.7194 18.2806C34.8133 18.3745 34.8875 18.4862 34.9378 18.6091C34.9881 18.7319 35.0134 18.8636 35.0123 18.9964C35.0111 19.1292 34.9835 19.2604 34.9311 19.3824C34.8787 19.5044 34.8025 19.6148 34.707 19.707L33.707 20.707C33.5195 20.8946 33.2652 20.9999 33 21ZM36 25H35C34.7348 25 34.4804 24.8946 34.2929 24.7071C34.1054 24.5196 34 24.2652 34 24C34 23.7348 34.1054 23.4804 34.2929 23.2929C34.4804 23.1054 34.7348 23 35 23H36C36.2652 23 36.5196 23.1054 36.7071 23.2929C36.8946 23.4804 37 23.7348 37 24C37 24.2652 36.8946 24.5196 36.7071 24.7071C36.5196 24.8946 36.2652 25 36 25ZM23.823 34C24.0883 34.623 24.5309 35.1543 25.0958 35.5277C25.6606 35.9012 26.3228 36.1003 27 36.1003C27.6772 36.1003 28.3394 35.9012 28.9042 35.5277C29.4691 35.1543 29.9117 34.623 30.177 34H23.823Z" fill="#F8F8F8"/>
</svg>
