<svg width="25" height="25" viewBox="0 0 25 25" fill="none" xmlns="http://www.w3.org/2000/svg">
<path d="M9.23535 10.1422C9.23535 9.2802 9.57776 8.45355 10.1873 7.84405C10.7967 7.23456 11.6234 6.89215 12.4854 6.89215C13.3473 6.89215 14.174 7.23456 14.7834 7.84405C15.3929 8.45355 15.7354 9.2802 15.7354 10.1422C15.7354 11.0041 15.3929 11.8308 14.7834 12.4402C14.174 13.0497 13.3473 13.3922 12.4854 13.3922C11.6234 13.3922 10.7967 13.0497 10.1873 12.4402C9.57776 11.8308 9.23535 11.0041 9.23535 10.1422Z" fill="#FEFEFE"/>
<path fill-rule="evenodd" clip-rule="evenodd" d="M4.2593 9.01915C4.42564 7.0089 5.34153 5.13462 6.82527 3.76814C8.30901 2.40165 10.2522 1.64281 12.2693 1.64215H12.7013C14.7184 1.64281 16.6616 2.40165 18.1453 3.76814C19.6291 5.13462 20.545 7.0089 20.7113 9.01915C20.8959 11.2636 20.203 13.4921 18.7783 15.2361L13.9853 21.0981C13.8036 21.3205 13.5748 21.4997 13.3154 21.6227C13.056 21.7458 12.7724 21.8096 12.4853 21.8096C12.1982 21.8096 11.9146 21.7458 11.6552 21.6227C11.3958 21.4997 11.167 21.3205 10.9853 21.0981L6.1933 15.2361C4.76827 13.4922 4.075 11.2637 4.2593 9.01915ZM12.4853 5.39215C11.2255 5.39215 10.0173 5.8926 9.12655 6.78339C8.23575 7.67419 7.7353 8.88237 7.7353 10.1422C7.7353 11.4019 8.23575 12.6101 9.12655 13.5009C10.0173 14.3917 11.2255 14.8922 12.4853 14.8922C13.7451 14.8922 14.9533 14.3917 15.8441 13.5009C16.7349 12.6101 17.2353 11.4019 17.2353 10.1422C17.2353 8.88237 16.7349 7.67419 15.8441 6.78339C14.9533 5.8926 13.7451 5.39215 12.4853 5.39215Z" fill="#FEFEFE"/>
</svg>
