<svg width="25" height="25" viewBox="0 0 25 25" fill="none" xmlns="http://www.w3.org/2000/svg">
<path fill-rule="evenodd" clip-rule="evenodd" d="M7.73535 10.1421C7.73535 8.88231 8.2358 7.67413 9.12659 6.78333C10.0174 5.89254 11.2256 5.39209 12.4854 5.39209C13.7451 5.39209 14.9533 5.89254 15.8441 6.78333C16.7349 7.67413 17.2354 8.88231 17.2354 10.1421C17.2354 11.4019 16.7349 12.61 15.8441 13.5008C14.9533 14.3916 13.7451 14.8921 12.4854 14.8921C11.2256 14.8921 10.0174 14.3916 9.12659 13.5008C8.2358 12.61 7.73535 11.4019 7.73535 10.1421ZM12.4854 6.89209C11.6234 6.89209 10.7967 7.2345 10.1873 7.84399C9.57776 8.45349 9.23535 9.28014 9.23535 10.1421C9.23535 11.004 9.57776 11.8307 10.1873 12.4402C10.7967 13.0497 11.6234 13.3921 12.4854 13.3921C13.3473 13.3921 14.174 13.0497 14.7834 12.4402C15.3929 11.8307 15.7354 11.004 15.7354 10.1421C15.7354 9.28014 15.3929 8.45349 14.7834 7.84399C14.174 7.2345 13.3473 6.89209 12.4854 6.89209Z" fill="#FEFEFE"/>
<path fill-rule="evenodd" clip-rule="evenodd" d="M4.00933 8.99909C4.18071 6.92606 5.12514 4.99322 6.65523 3.58409C8.18532 2.17497 10.1892 1.39255 12.2693 1.39209H12.7013C14.7814 1.39255 16.7853 2.17497 18.3154 3.58409C19.8455 4.99322 20.79 6.92606 20.9613 8.99909C21.152 11.3084 20.4385 13.6016 18.9713 15.3951L14.1783 21.2561C13.9732 21.5069 13.7149 21.709 13.4221 21.8478C13.1293 21.9866 12.8094 22.0586 12.4853 22.0586C12.1613 22.0586 11.8413 21.9866 11.5485 21.8478C11.2557 21.709 10.9974 21.5069 10.7923 21.2561L5.99933 15.3951C4.53216 13.6016 3.8187 11.3084 4.00933 8.99909ZM12.2693 2.89209C10.5659 2.89281 8.92505 3.53374 7.67214 4.68774C6.41922 5.84174 5.64581 7.42451 5.50533 9.12209C5.34661 11.044 5.94033 12.9524 7.16133 14.4451L11.9543 20.3071C12.0188 20.3859 12.0999 20.4495 12.1919 20.4931C12.2839 20.5368 12.3845 20.5594 12.4863 20.5594C12.5882 20.5594 12.6887 20.5368 12.7807 20.4931C12.8727 20.4495 12.9539 20.3859 13.0183 20.3071L17.8113 14.4451C19.0316 12.9521 19.6246 11.0437 19.4653 9.12209C19.3248 7.42434 18.5513 5.84143 17.2982 4.6874C16.045 3.53337 14.4039 2.89256 12.7003 2.89209H12.2693Z" fill="#FEFEFE"/>
</svg>
