<svg width="21" height="20" viewBox="0 0 21 20" fill="none" xmlns="http://www.w3.org/2000/svg">
<circle cx="10.5" cy="10" r="9" fill="#FF5454" stroke="#FF5454" stroke-width="2"/>
<path d="M9.81238 12.7586C9.81238 12.6228 9.83914 12.4883 9.89112 12.3628C9.94311 12.2372 10.0193 12.1232 10.1154 12.0271C10.2114 11.9311 10.3255 11.8549 10.451 11.8029C10.5765 11.7509 10.711 11.7242 10.8469 11.7242C10.9827 11.7242 11.1172 11.7509 11.2427 11.8029C11.3682 11.8549 11.4823 11.9311 11.5783 12.0271C11.6744 12.1232 11.7506 12.2372 11.8026 12.3628C11.8546 12.4883 11.8813 12.6228 11.8813 12.7586C11.8813 13.033 11.7724 13.2961 11.5783 13.4901C11.3843 13.6841 11.1212 13.7931 10.8469 13.7931C10.5725 13.7931 10.3094 13.6841 10.1154 13.4901C9.92137 13.2961 9.81238 13.033 9.81238 12.7586ZM9.91376 6.54657C9.89998 6.41606 9.9138 6.28411 9.95431 6.15929C9.99482 6.03446 10.0611 5.91955 10.1489 5.822C10.2367 5.72446 10.344 5.64646 10.4639 5.59307C10.5838 5.53968 10.7136 5.51208 10.8448 5.51208C10.976 5.51208 11.1058 5.53968 11.2257 5.59307C11.3456 5.64646 11.4529 5.72446 11.5407 5.822C11.6285 5.91955 11.6948 6.03446 11.7353 6.15929C11.7758 6.28411 11.7896 6.41606 11.7758 6.54657L11.4138 10.1745C11.399 10.3152 11.3328 10.4454 11.2277 10.54C11.1226 10.6347 10.9862 10.6871 10.8448 10.6871C10.7034 10.6871 10.567 10.6347 10.4619 10.54C10.3568 10.4454 10.2905 10.3152 10.2758 10.1745L9.91376 6.54657Z" fill="#FCFCFC"/>
</svg>
