<svg width="23" height="17" viewBox="0 0 23 17" fill="none" xmlns="http://www.w3.org/2000/svg">
<path d="M4.5 17V15H6.1L8.075 8.425C8.20833 7.99167 8.45433 7.646 8.813 7.388C9.17167 7.13 9.56733 7.00067 10 7H13C13.4333 7 13.8293 7.12933 14.188 7.388C14.5467 7.64667 14.7923 7.99233 14.925 8.425L16.9 15H18.5V17H4.5ZM8.2 15H14.8L13 9H10L8.2 15ZM10.5 5V0H12.5V5H10.5ZM16.45 7.475L15.025 6.05L18.575 2.525L19.975 3.925L16.45 7.475ZM17.5 12V10H22.5V12H17.5ZM6.55 7.475L3.025 3.925L4.425 2.525L7.975 6.05L6.55 7.475ZM0.5 12V10H5.5V12H0.5Z" fill="#F24B3F"/>
</svg>
