<svg width="20" height="20" viewBox="0 0 20 20" fill="none" xmlns="http://www.w3.org/2000/svg">
<path d="M10 17.5C10.9849 17.5 11.9602 17.306 12.8701 16.9291C13.7801 16.5522 14.6069 15.9997 15.3033 15.3033C15.9997 14.6069 16.5522 13.7801 16.9291 12.8701C17.306 11.9602 17.5 10.9849 17.5 10C17.5 9.01509 17.306 8.03982 16.9291 7.12987C16.5522 6.21993 15.9997 5.39314 15.3033 4.6967C14.6069 4.00026 13.7801 3.44781 12.8701 3.0709C11.9602 2.69399 10.9849 2.5 10 2.5C8.01088 2.5 6.10322 3.29018 4.6967 4.6967C3.29018 6.10322 2.5 8.01088 2.5 10C2.5 11.9891 3.29018 13.8968 4.6967 15.3033C6.10322 16.7098 8.01088 17.5 10 17.5ZM10 18.75C7.67936 18.75 5.45376 17.8281 3.81282 16.1872C2.17187 14.5462 1.25 12.3206 1.25 10C1.25 7.67936 2.17187 5.45376 3.81282 3.81282C5.45376 2.17187 7.67936 1.25 10 1.25C12.3206 1.25 14.5462 2.17187 16.1872 3.81282C17.8281 5.45376 18.75 7.67936 18.75 10C18.75 12.3206 17.8281 14.5462 16.1872 16.1872C14.5462 17.8281 12.3206 18.75 10 18.75Z" fill="#545454"/>
<path d="M3.75 10C3.75 8.3424 4.40848 6.75269 5.58058 5.58058C6.75269 4.40848 8.3424 3.75 10 3.75C11.6576 3.75 13.2473 4.40848 14.4194 5.58058C15.5915 6.75269 16.25 8.3424 16.25 10C16.25 10.1658 16.1842 10.3247 16.0669 10.4419C15.9497 10.5592 15.7908 10.625 15.625 10.625C15.4592 10.625 15.3003 10.5592 15.1831 10.4419C15.0658 10.3247 15 10.1658 15 10C15 8.67392 14.4732 7.40215 13.5355 6.46447C12.5979 5.52678 11.3261 5 10 5C8.67392 5 7.40215 5.52678 6.46447 6.46447C5.52678 7.40215 5 8.67392 5 10C5 10.1658 4.93415 10.3247 4.81694 10.4419C4.69973 10.5592 4.54076 10.625 4.375 10.625C4.20924 10.625 4.05027 10.5592 3.93306 10.4419C3.81585 10.3247 3.75 10.1658 3.75 10Z" fill="#545454"/>
<path d="M11.1413 12.2626C11.492 12.5321 11.7362 12.9168 11.8307 13.3489C11.9252 13.781 11.864 14.2325 11.6577 14.6238C11.4515 15.0151 11.1136 15.3208 10.7037 15.4871C10.2939 15.6533 9.83844 15.6693 9.41792 15.5322C8.99741 15.3951 8.63889 15.1138 8.40573 14.738C8.17257 14.3621 8.07977 13.916 8.14374 13.4783C8.20772 13.0407 8.42434 12.6398 8.75532 12.3464C9.08631 12.053 9.51035 11.8861 9.95251 11.8751L11.1438 8.20762C11.1684 8.12874 11.2085 8.05555 11.2617 7.99227C11.3148 7.92899 11.38 7.87688 11.4535 7.83896C11.5269 7.80104 11.6071 7.77806 11.6895 7.77135C11.7719 7.76464 11.8548 7.77434 11.9334 7.79988C12.012 7.82542 12.0847 7.86629 12.1474 7.92014C12.2101 7.97398 12.2615 8.03973 12.2986 8.11357C12.3358 8.18741 12.3579 8.26789 12.3637 8.35033C12.3695 8.43277 12.3589 8.51555 12.3325 8.59387L11.1413 12.2614V12.2626ZM9.80626 14.3451C9.88439 14.3706 9.96677 14.3804 10.0487 14.374C10.1306 14.3676 10.2105 14.3451 10.2837 14.3078C10.357 14.2706 10.4222 14.2193 10.4756 14.1568C10.529 14.0944 10.5696 14.022 10.595 13.9439C10.6204 13.8657 10.6303 13.7834 10.6239 13.7014C10.6175 13.6195 10.595 13.5396 10.5577 13.4664C10.5205 13.3932 10.4692 13.328 10.4067 13.2746C10.3443 13.2211 10.2719 13.1806 10.1938 13.1551C10.036 13.1037 9.8642 13.1171 9.71628 13.1924C9.56836 13.2676 9.45639 13.3986 9.40501 13.5564C9.35362 13.7142 9.36703 13.8859 9.44228 14.0338C9.51752 14.1818 9.64845 14.2937 9.80626 14.3451Z" fill="#545454"/>
</svg>
