<svg width="20" height="20" viewBox="0 0 20 20" fill="none" xmlns="http://www.w3.org/2000/svg">
<path d="M2.5 1.66666H5C5.23333 1.66666 5.44167 1.75832 5.59167 1.90832L7.325 3.64999L7.99167 2.99166C8.33333 2.66666 8.75 2.49999 9.16667 2.49999H14.1667C14.5833 2.49999 15 2.66666 15.3417 2.99166L16.175 3.82499C16.5 4.16666 16.6667 4.58332 16.6667 4.99999V15.8333C16.6667 16.2754 16.4911 16.6993 16.1785 17.0118C15.8659 17.3244 15.442 17.5 15 17.5H6.66667C6.22464 17.5 5.80072 17.3244 5.48816 17.0118C5.17559 16.6993 5 16.2754 5 15.8333V6.66666C5 6.24999 5.16667 5.83332 5.49167 5.49166L6.15 4.82499L4.65833 3.33332H2.5V1.66666ZM9.16667 4.16666V5.83332H14.1667V4.16666H9.16667ZM9.50833 9.16666L7.84167 7.49999H6.66667V8.67499L8.33333 10.3417V12.9917L6.66667 14.6583V15.8333H7.84167L9.50833 14.1667H12.1583L13.825 15.8333H15V14.6583L13.3333 12.9917V10.3417L15 8.67499V7.49999H13.825L12.1583 9.16666H9.50833ZM10 10.8333H11.6667V12.5H10V10.8333Z" fill="#363636"/>
</svg>
