<svg width="20" height="20" viewBox="0 0 20 20" fill="none" xmlns="http://www.w3.org/2000/svg">
<path d="M3.33325 10.5H3.83325V10C3.83325 8.14348 4.57075 6.36301 5.8835 5.05025C7.19626 3.7375 8.97674 3 10.8333 3C12.6898 3 14.4702 3.7375 15.783 5.05025C17.0958 6.36301 17.8333 8.14348 17.8333 10C17.8333 11.8565 17.0958 13.637 15.783 14.9497C14.4702 16.2625 12.6898 17 10.8333 17L10.8325 17C9.91364 17.0013 9.00358 16.8206 8.15489 16.4683C7.46004 16.1799 6.81759 15.7811 6.25196 15.2884L6.72927 14.8111C7.83091 15.758 9.26661 16.3333 10.8333 16.3333C14.3344 16.3333 17.1666 13.5011 17.1666 10C17.1666 6.49886 14.3344 3.66667 10.8333 3.66667C7.33211 3.66667 4.49992 6.49886 4.49992 10V10.5H4.99992H6.29069L4.16289 12.6225L2.04036 10.5H3.33325ZM10.7499 10.125V10.4096L10.9946 10.5549L13.4956 12.0399L13.3692 12.2499L10.4999 10.5485V7.16667H10.7499V10.125Z" fill="#ADADAD" stroke="#C8C8C8"/>
</svg>
