<svg width="18" height="22" viewBox="0 0 18 22" fill="none" xmlns="http://www.w3.org/2000/svg">
<path fill-rule="evenodd" clip-rule="evenodd" d="M4.73535 9.14213C4.73535 7.88236 5.2358 6.67417 6.12659 5.78338C7.01739 4.89258 8.22557 4.39213 9.48535 4.39213C10.7451 4.39213 11.9533 4.89258 12.8441 5.78338C13.7349 6.67417 14.2354 7.88236 14.2354 9.14213C14.2354 10.4019 13.7349 11.6101 12.8441 12.5009C11.9533 13.3917 10.7451 13.8921 9.48535 13.8921C8.22557 13.8921 7.01739 13.3917 6.12659 12.5009C5.2358 11.6101 4.73535 10.4019 4.73535 9.14213ZM9.48535 5.89213C8.6234 5.89213 7.79675 6.23454 7.18725 6.84404C6.57776 7.45353 6.23535 8.28018 6.23535 9.14213C6.23535 10.0041 6.57776 10.8307 7.18725 11.4402C7.79675 12.0497 8.6234 12.3921 9.48535 12.3921C10.3473 12.3921 11.174 12.0497 11.7834 11.4402C12.3929 10.8307 12.7354 10.0041 12.7354 9.14213C12.7354 8.28018 12.3929 7.45353 11.7834 6.84404C11.174 6.23454 10.3473 5.89213 9.48535 5.89213Z" fill="#FEFEFE"/>
<path fill-rule="evenodd" clip-rule="evenodd" d="M1.00936 7.99913C1.18074 5.92611 2.12517 3.99326 3.65526 2.58414C5.18535 1.17501 7.18926 0.392589 9.26936 0.392134H9.70136C11.7815 0.392589 13.7854 1.17501 15.3155 2.58414C16.8455 3.99326 17.79 5.92611 17.9614 7.99913C18.152 10.3085 17.4385 12.6016 15.9714 14.3951L11.1784 20.2561C10.9732 20.507 10.7149 20.7091 10.4222 20.8479C10.1294 20.9867 9.80938 21.0587 9.48536 21.0587C9.16134 21.0587 8.84136 20.9867 8.54857 20.8479C8.25577 20.7091 7.99748 20.507 7.79236 20.2561L2.99936 14.3951C1.53219 12.6016 0.818727 10.3085 1.00936 7.99913ZM9.26936 1.89213C7.56598 1.89285 5.92508 2.53378 4.67217 3.68778C3.41925 4.84178 2.64584 6.42455 2.50536 8.12213C2.34664 10.044 2.94036 11.9525 4.16136 13.4451L8.95436 19.3071C9.01879 19.386 9.09995 19.4495 9.19196 19.4932C9.28397 19.5368 9.38453 19.5595 9.48636 19.5595C9.58819 19.5595 9.68875 19.5368 9.78076 19.4932C9.87277 19.4495 9.95393 19.386 10.0184 19.3071L14.8114 13.4451C16.0316 11.9522 16.6246 10.0438 16.4654 8.12213C16.3249 6.42438 15.5513 4.84147 14.2982 3.68744C13.0451 2.53342 11.4039 1.8926 9.70036 1.89213H9.26936Z" fill="#FEFEFE"/>
</svg>
