<svg width="18" height="18" viewBox="0 0 18 18" fill="none" xmlns="http://www.w3.org/2000/svg">
<path d="M1.08334 3.74998C1.08334 2.81665 1.08334 2.34998 1.26501 1.99331C1.4248 1.67972 1.67975 1.42477 1.99334 1.26498C2.35001 1.08331 2.81668 1.08331 3.75001 1.08331H14.25C15.1833 1.08331 15.65 1.08331 16.0067 1.26498C16.3203 1.42477 16.5752 1.67972 16.735 1.99331C16.9167 2.34998 16.9167 2.81665 16.9167 3.74998V14.25C16.9167 15.1833 16.9167 15.65 16.735 16.0066C16.5752 16.3202 16.3203 16.5752 16.0067 16.735C15.65 16.9166 15.1833 16.9166 14.25 16.9166H3.75001C2.81668 16.9166 2.35001 16.9166 1.99334 16.735C1.67975 16.5752 1.4248 16.3202 1.26501 16.0066C1.08334 15.65 1.08334 15.1833 1.08334 14.25V3.74998Z" stroke="#C8C8C8" stroke-linecap="round"/>
<path d="M14.4167 16.9167L9.41668 4.41667M16.9167 2.75L1.08334 6.08333M9.41668 11.525C9.41668 13.3233 7.63334 14.5867 6.85584 15.0525C6.74835 15.117 6.62536 15.1511 6.50001 15.1511C6.37466 15.1511 6.25167 15.117 6.14418 15.0525C5.36668 14.5867 3.58334 13.3233 3.58334 11.5242C3.58334 9.76 4.99668 8.58333 6.50001 8.58333C8.05584 8.58333 9.41668 9.76 9.41668 11.525Z" stroke="#C8C8C8"/>
<path d="M6.50002 12.3333C6.96026 12.3333 7.33335 11.9602 7.33335 11.5C7.33335 11.0398 6.96026 10.6667 6.50002 10.6667C6.03978 10.6667 5.66669 11.0398 5.66669 11.5C5.66669 11.9602 6.03978 12.3333 6.50002 12.3333Z" fill="#C8C8C8"/>
</svg>
