<svg width="16" height="16" viewBox="0 0 16 16" fill="none" xmlns="http://www.w3.org/2000/svg">
<path d="M14.99 6.1625L13.5725 5.69L14.24 4.355C14.3077 4.21527 14.3303 4.05798 14.3048 3.90483C14.2793 3.75169 14.2068 3.61024 14.0975 3.5L12.5 1.9025C12.3892 1.79157 12.2464 1.71816 12.0917 1.6926C11.937 1.66704 11.7781 1.69061 11.6375 1.76L10.3025 2.4275L9.83 1.01C9.7801 0.862247 9.68538 0.733722 9.55902 0.642314C9.43266 0.550905 9.28095 0.501161 9.125 0.500003H6.875C6.71777 0.499597 6.56439 0.548617 6.43653 0.640134C6.30868 0.731651 6.21282 0.861037 6.1625 1.01L5.69 2.4275L4.355 1.76C4.21527 1.69234 4.05798 1.66971 3.90483 1.69523C3.75169 1.72075 3.61024 1.79318 3.5 1.9025L1.9025 3.5C1.79157 3.61083 1.71816 3.75363 1.6926 3.90834C1.66704 4.06305 1.69061 4.22189 1.76 4.3625L2.4275 5.6975L1.01 6.17C0.862247 6.2199 0.733722 6.31462 0.642314 6.44098C0.550905 6.56734 0.501161 6.71905 0.500003 6.875V9.125C0.499597 9.28223 0.548617 9.43562 0.640134 9.56347C0.731651 9.69133 0.861037 9.78719 1.01 9.8375L2.4275 10.31L1.76 11.645C1.69234 11.7847 1.66971 11.942 1.69523 12.0952C1.72075 12.2483 1.79318 12.3898 1.9025 12.5L3.5 14.0975C3.61083 14.2084 3.75363 14.2818 3.90834 14.3074C4.06305 14.333 4.22189 14.3094 4.3625 14.24L5.6975 13.5725L6.17 14.99C6.22032 15.139 6.31618 15.2684 6.44403 15.3599C6.57189 15.4514 6.72527 15.5004 6.8825 15.5H9.1325C9.28974 15.5004 9.44312 15.4514 9.57097 15.3599C9.69883 15.2684 9.79469 15.139 9.845 14.99L10.3175 13.5725L11.6525 14.24C11.7913 14.306 11.9471 14.3277 12.0987 14.3022C12.2503 14.2767 12.3904 14.2052 12.5 14.0975L14.0975 12.5C14.2084 12.3892 14.2818 12.2464 14.3074 12.0917C14.333 11.937 14.3094 11.7781 14.24 11.6375L13.5725 10.3025L14.99 9.83C15.1378 9.7801 15.2663 9.68538 15.3577 9.55902C15.4491 9.43266 15.4988 9.28095 15.5 9.125V6.875C15.5004 6.71777 15.4514 6.56439 15.3599 6.43653C15.2684 6.30868 15.139 6.21282 14.99 6.1625ZM14 8.585L13.1 8.885C12.893 8.95213 12.7032 9.06348 12.5435 9.21133C12.3839 9.35917 12.2584 9.53997 12.1756 9.74119C12.0928 9.9424 12.0548 10.1592 12.0642 10.3766C12.0736 10.594 12.1302 10.8067 12.23 11L12.6575 11.855L11.8325 12.68L11 12.23C10.8077 12.1342 10.597 12.0808 10.3822 12.0735C10.1675 12.0662 9.95366 12.1051 9.75524 12.1875C9.55683 12.27 9.37845 12.3942 9.23219 12.5516C9.08593 12.7091 8.9752 12.8961 8.9075 13.1L8.6075 14H7.415L7.115 13.1C7.04787 12.893 6.93652 12.7032 6.78868 12.5435C6.64083 12.3839 6.46003 12.2584 6.25882 12.1756C6.0576 12.0928 5.84079 12.0548 5.62342 12.0642C5.40605 12.0736 5.19333 12.1302 5 12.23L4.145 12.6575L3.32 11.8325L3.77 11C3.86982 10.8067 3.92639 10.594 3.93579 10.3766C3.94518 10.1592 3.90718 9.9424 3.82441 9.74119C3.74164 9.53997 3.61609 9.35917 3.45646 9.21133C3.29684 9.06348 3.10696 8.95213 2.9 8.885L2 8.585V7.415L2.9 7.115C3.10696 7.04787 3.29684 6.93652 3.45646 6.78868C3.61609 6.64083 3.74164 6.46003 3.82441 6.25882C3.90718 6.0576 3.94518 5.84079 3.93579 5.62342C3.92639 5.40605 3.86982 5.19333 3.77 5L3.3425 4.1675L4.1675 3.3425L5 3.77C5.19333 3.86982 5.40605 3.92639 5.62342 3.93579C5.84079 3.94518 6.0576 3.90718 6.25882 3.82441C6.46003 3.74164 6.64083 3.61609 6.78868 3.45646C6.93652 3.29684 7.04787 3.10696 7.115 2.9L7.415 2H8.585L8.885 2.9C8.95213 3.10696 9.06348 3.29684 9.21133 3.45646C9.35917 3.61609 9.53997 3.74164 9.74119 3.82441C9.9424 3.90718 10.1592 3.94518 10.3766 3.93579C10.594 3.92639 10.8067 3.86982 11 3.77L11.855 3.3425L12.68 4.1675L12.23 5C12.1342 5.19234 12.0808 5.40301 12.0735 5.61777C12.0662 5.83253 12.1051 6.04635 12.1875 6.24476C12.27 6.44318 12.3942 6.62155 12.5516 6.76781C12.7091 6.91407 12.8961 7.0248 13.1 7.0925L14 7.3925V8.585ZM8 5C7.40666 5 6.82664 5.17595 6.33329 5.50559C5.83994 5.83524 5.45543 6.30377 5.22836 6.85195C5.0013 7.40013 4.94189 8.00333 5.05765 8.58527C5.1734 9.16722 5.45912 9.70177 5.87868 10.1213C6.29824 10.5409 6.83279 10.8266 7.41473 10.9424C7.99667 11.0581 8.59987 10.9987 9.14805 10.7716C9.69623 10.5446 10.1648 10.1601 10.4944 9.66671C10.8241 9.17337 11 8.59335 11 8C11 7.20435 10.6839 6.44129 10.1213 5.87868C9.55871 5.31607 8.79565 5 8 5ZM8 9.5C7.70333 9.5 7.41332 9.41203 7.16665 9.24721C6.91997 9.08238 6.72771 8.84812 6.61418 8.57403C6.50065 8.29994 6.47095 7.99834 6.52882 7.70737C6.5867 7.4164 6.72956 7.14912 6.93934 6.93934C7.14912 6.72956 7.4164 6.5867 7.70737 6.52882C7.99834 6.47095 8.29994 6.50065 8.57403 6.61418C8.84812 6.72771 9.08238 6.91997 9.24721 7.16665C9.41203 7.41332 9.5 7.70333 9.5 8C9.5 8.39783 9.34197 8.77936 9.06066 9.06066C8.77936 9.34197 8.39783 9.5 8 9.5Z" fill="#545454"/>
</svg>
