<svg width="44" height="44" viewBox="0 0 44 44" fill="none" xmlns="http://www.w3.org/2000/svg">
<circle cx="22" cy="22" r="21.5" fill="#D8F3E1" stroke="#82D3A8"/>
<path d="M32.8025 10.0474C33.8125 10.1875 33.8125 10.1875 34.25 10.625C34.447 12.4798 34.0125 13.4533 33.0144 15C32.6137 15.63 32.6137 15.63 32.2049 16.2728C31.769 16.9421 31.769 16.9421 31.3242 17.625C30.7223 18.5659 30.1208 19.507 29.5195 20.4482C29.2139 20.9239 28.9082 21.3997 28.5933 21.8898C27.7296 23.2464 26.8841 24.6123 26.0469 25.9854C25.7929 26.4016 25.539 26.8178 25.2773 27.2466C24.798 28.0341 24.32 28.8225 23.8437 29.6118C21.5483 33.36 21.5483 33.36 20.25 34.25C18.7598 34.5063 18.7598 34.5063 17.1875 34.25C16.2156 33.473 15.5538 32.8391 14.7812 31.8984C14.5772 31.6609 14.3732 31.4234 14.163 31.1786C13.5555 30.4611 12.964 29.7328 12.375 29C12.0434 28.599 11.7118 28.198 11.3701 27.7849C10.0495 26.0708 9.33507 25.099 9.23047 22.9023C9.75 21.5625 9.75 21.5625 10.4609 20.6875C12.0594 20.0145 12.8997 20.1887 14.5625 20.6875C15.5355 21.4208 16.4047 22.2019 17.2764 23.0527C18.0689 23.8476 18.0689 23.8476 19.375 24.1875C21.0434 22.2959 22.6946 20.3903 24.3314 18.4714C25.2328 17.4164 26.139 16.3657 27.0447 15.3145C27.6442 14.6131 28.2349 13.9054 28.824 13.1953C29.1618 12.7983 29.4996 12.4012 29.8477 11.9922C30.2867 11.466 30.2867 11.466 30.7346 10.9292C31.625 10.1875 31.625 10.1875 32.8025 10.0474Z" fill="#059446"/>
<path d="M32.4999 11.5C32.4999 13.0321 32.1842 13.4596 31.36 14.7231C31.1126 15.1065 30.8652 15.4898 30.6103 15.8847C30.3405 16.2966 30.0708 16.7085 29.7928 17.1328C29.2317 18 28.6712 18.8676 28.1112 19.7356C27.8236 20.1808 27.536 20.626 27.2396 21.0846C25.626 23.6092 24.0684 26.1688 22.5148 28.7306C22.1829 29.2726 22.1829 29.2726 21.8443 29.8254C21.6519 30.1422 21.4595 30.459 21.2613 30.7854C20.6936 31.6159 20.1399 32.2845 19.3749 32.9375C18.0819 32.919 17.6307 32.5055 16.6849 31.6233C15.6764 30.4644 14.6732 29.3032 13.6874 28.125C13.4105 27.7979 13.1336 27.4708 12.8483 27.1338C11.5254 25.4873 10.8608 24.6252 11.0624 22.4375C11.4999 22 11.4999 22 12.8397 21.9727C14.9085 22.2658 15.9085 23.6923 17.1908 25.23C18.0155 26.0501 18.0155 26.0501 19.1459 25.9443C20.5273 25.3883 21.1449 24.7181 22.1092 23.5859C22.4504 23.1895 22.7916 22.793 23.1432 22.3845C24.4719 20.7818 25.7871 19.1687 27.0961 17.5498C28.8265 15.4687 30.6606 13.4851 32.4999 11.5Z" fill="#AAEC8C"/>
<path d="M32.5 11.5C32.5 13.0405 32.1559 13.537 31.3242 14.8086C30.9968 15.3238 30.9968 15.3238 30.6628 15.8494C29.7515 16.8912 28.9937 17.2133 27.6875 17.625C28.3778 16.0017 29.3968 14.8692 30.5859 13.5781C30.9435 13.1879 31.301 12.7976 31.6694 12.3955C31.9435 12.1 32.2176 11.8045 32.5 11.5Z" fill="#89DA7E"/>
</svg>
