<svg width="21" height="21" viewBox="0 0 21 21" fill="none" xmlns="http://www.w3.org/2000/svg">
<path d="M5.90408 5.83777H5.06065C4.61326 5.83777 4.1842 6.0135 3.86785 6.32629C3.5515 6.63909 3.37378 7.06334 3.37378 7.5057V15.0114C3.37378 15.4538 3.5515 15.878 3.86785 16.1908C4.1842 16.5036 4.61326 16.6793 5.06065 16.6793H12.6515C13.0989 16.6793 13.528 16.5036 13.8443 16.1908C14.1607 15.878 14.3384 15.4538 14.3384 15.0114V14.1774" stroke="#FEFEFE" stroke-width="1.6" stroke-linecap="round" stroke-linejoin="round"/>
<path d="M13.4951 4.16982L16.0254 6.67172M17.1936 5.49166C17.5257 5.16321 17.7124 4.71773 17.7124 4.25322C17.7124 3.78871 17.5257 3.34323 17.1936 3.01478C16.8614 2.68632 16.4108 2.5018 15.9411 2.5018C15.4713 2.5018 15.0207 2.68632 14.6886 3.01478L7.59106 10.0076V12.5095H10.1214L17.1936 5.49166Z" stroke="#FEFEFE" stroke-width="1.4" stroke-linecap="round" stroke-linejoin="round"/>
</svg>
