<svg width="18" height="20" viewBox="0 0 18 20" fill="none" xmlns="http://www.w3.org/2000/svg">
<path d="M7.48048 0.160142C7.19923 0.300767 6.9961 0.539048 6.91017 0.832017C6.83595 1.08592 6.83595 1.2617 6.91407 1.52342C6.9961 1.80077 7.33204 2.14452 7.60938 2.23827C8.3672 2.49608 9.12501 1.96483 9.13282 1.17186C9.14063 0.320298 8.25001 -0.22267 7.48048 0.160142ZM8.28126 0.738267C8.39845 0.80858 8.53126 1.02733 8.53126 1.14842C8.53126 1.28905 8.39845 1.52733 8.27735 1.60155C7.75001 1.92577 7.21095 1.23436 7.65235 0.792955C7.76173 0.68358 7.8086 0.664048 7.97267 0.664048C8.08595 0.664048 8.20704 0.691392 8.28126 0.738267Z" fill="#C8C8C8"/>
<path d="M3.29687 1.89453L2.3789 2.8125L2.15624 2.58984C1.96874 2.40234 1.91015 2.36719 1.79687 2.36719C1.55468 2.36719 1.42187 2.57422 1.51952 2.80078C1.54687 2.85938 1.71874 3.05469 1.90234 3.23047C2.18359 3.50391 2.26171 3.55469 2.36718 3.55469C2.48437 3.55469 2.60155 3.44922 3.5664 2.48438C4.55468 1.49609 4.63671 1.40234 4.6328 1.28125C4.6289 1.19531 4.59765 1.125 4.52734 1.0625C4.3203 0.886719 4.29296 0.902344 3.29687 1.89453Z" fill="#C8C8C8"/>
<path d="M1.94531 1.14844C1.24219 1.30859 0.636716 1.87109 0.464841 2.51953C0.148435 3.74609 1.0664 4.92188 2.33984 4.92188C2.89453 4.92188 3.33984 4.73437 3.72265 4.33984C4.03515 4.01953 4.26953 3.46094 4.27344 3.03516C4.27344 2.75391 3.97656 2.59766 3.76562 2.76562C3.69922 2.82031 3.66797 2.90234 3.64453 3.08984C3.57031 3.61719 3.24609 4.05078 2.79297 4.22266C2.5 4.33203 2.03515 4.3125 1.77344 4.18359C1.53515 4.0625 1.28125 3.80859 1.16015 3.57422C1.04297 3.34766 0.996091 2.92578 1.0664 2.67578C1.19922 2.17578 1.6875 1.79687 2.27344 1.73437C2.54297 1.70312 2.67187 1.60547 2.67187 1.42187C2.67187 1.13672 2.41797 1.04297 1.94531 1.14844Z" fill="#C8C8C8"/>
<path d="M7.28125 2.67576C6.51562 2.84764 5.93359 3.41014 5.74609 4.16014C5.59375 4.75389 5.625 5.05076 5.86328 5.31639C6.05469 5.52733 6.25781 5.64061 6.66406 5.7578C7.55859 6.01561 8.8789 5.96483 9.60937 5.64451C9.85937 5.53514 10.125 5.29686 10.2031 5.11717C10.2734 4.9453 10.2695 4.56639 10.1914 4.23045C10.0156 3.47654 9.52734 2.95311 8.76953 2.70701C8.50781 2.62108 7.60156 2.60155 7.28125 2.67576ZM8.74609 3.35936C9.22656 3.54295 9.55078 4.00389 9.62109 4.59764C9.65625 4.89842 9.625 4.95701 9.35547 5.0742C9 5.22655 8.6289 5.28514 7.98437 5.28514C7.33984 5.28514 6.91797 5.22264 6.57812 5.0742C6.28515 4.9453 6.2539 4.90233 6.28515 4.63279C6.37109 3.91014 6.71875 3.48436 7.36719 3.30076C7.6875 3.21092 8.44531 3.24217 8.74609 3.35936Z" fill="#C8C8C8"/>
<path d="M11.8555 3.26562C11.7461 3.40234 11.7539 3.52734 11.8672 3.66016L11.9609 3.76953H13.9805H16L16.0938 3.66016C16.207 3.52734 16.2149 3.40234 16.1055 3.26562L16.0274 3.16406H13.9805H11.9336L11.8555 3.26562Z" fill="#C8C8C8"/>
<path d="M11.8555 4.51562C11.7461 4.65234 11.7539 4.77734 11.8672 4.91016L11.9609 5.01953H14.6563H17.3516L17.4531 4.92578C17.5859 4.80078 17.5899 4.61719 17.4649 4.5L17.375 4.41406H14.6563H11.9336L11.8555 4.51562Z" fill="#C8C8C8"/>
<path d="M7.56641 7.15233C7.29688 7.25779 6.99219 7.58201 6.91016 7.85936C6.83594 8.11326 6.83594 8.29295 6.91016 8.54295C7.15234 9.35936 8.22266 9.61326 8.8125 8.99998C9.26563 8.52733 9.24219 7.79686 8.76172 7.36717C8.43359 7.07029 7.98438 6.99217 7.56641 7.15233ZM8.27734 7.77342C8.39844 7.84764 8.53125 8.08592 8.53125 8.22654C8.53125 8.34764 8.39844 8.56639 8.28125 8.6367C8.20703 8.68358 8.08594 8.71092 7.97266 8.71092C7.80859 8.71092 7.76172 8.69139 7.65234 8.58201C7.21094 8.14061 7.75 7.4492 8.27734 7.77342Z" fill="#C8C8C8"/>
<path d="M4.21484 8.04688C4.17187 8.0625 3.74218 8.47656 3.25781 8.96094L2.38281 9.83984L2.16015 9.62891C1.98437 9.46094 1.90624 9.41406 1.81249 9.41406C1.64453 9.41406 1.55468 9.46875 1.50781 9.60156C1.44921 9.76953 1.52734 9.90234 1.90234 10.2617C2.41406 10.7617 2.31249 10.8047 3.54296 9.57813C4.10156 9.02734 4.57812 8.52344 4.60546 8.46484C4.6914 8.26172 4.60156 8.07813 4.39062 8.03125C4.33593 8.01953 4.25781 8.02734 4.21484 8.04688Z" fill="#C8C8C8"/>
<path d="M2.08593 8.1289C0.746088 8.27734 0.0039002 9.71874 0.6289 10.9531C0.812494 11.3164 1.21874 11.6797 1.61328 11.832C2.77343 12.293 4.05078 11.5547 4.24218 10.3203C4.29296 10.0039 4.24999 9.83984 4.09374 9.76952C3.83203 9.65234 3.67187 9.78906 3.63671 10.1562C3.60156 10.4961 3.45703 10.7734 3.19921 11.0117C2.40234 11.7383 1.10937 11.2148 1.03906 10.1367C0.988275 9.35156 1.44921 8.83202 2.29296 8.73046C2.51953 8.69921 2.63281 8.60156 2.63281 8.43359C2.63281 8.16796 2.48828 8.08593 2.08593 8.1289Z" fill="#C8C8C8"/>
<path d="M7.49609 9.67578C6.8828 9.75781 6.28515 10.125 5.99999 10.5937C5.73437 11.0391 5.58593 11.7187 5.68359 12.0625C5.84765 12.6523 6.90234 13.0195 8.23827 12.957C9.22265 12.9102 9.91405 12.6523 10.1523 12.25C10.3359 11.9336 10.2812 11.3555 10.0117 10.7891C9.73437 10.2109 9.24999 9.85156 8.56249 9.71093C8.28515 9.65234 7.78515 9.63672 7.49609 9.67578ZM8.48827 10.332C9.17577 10.4961 9.55859 10.9492 9.61327 11.6641C9.63671 11.9336 9.6328 11.9414 9.51952 12.0234C8.97655 12.4102 7.24999 12.4453 6.53515 12.0898C6.26171 11.9492 6.24609 11.9219 6.30077 11.5898C6.41796 10.8867 6.82812 10.4453 7.48437 10.3164C7.7578 10.2617 8.21874 10.2695 8.48827 10.332Z" fill="#C8C8C8"/>
<path d="M11.8711 10.293C11.7149 10.4453 11.7461 10.668 11.9336 10.7617C12.0234 10.8125 12.3555 10.8203 13.9805 10.8203C15.3789 10.8203 15.9414 10.8086 16.0039 10.7734C16.207 10.668 16.2461 10.4492 16.0899 10.293L15.9961 10.1953H13.9805H11.9649L11.8711 10.293Z" fill="#C8C8C8"/>
<path d="M11.8711 11.582C11.7149 11.7344 11.7461 11.957 11.9336 12.0508C12.0274 12.1016 12.4453 12.1094 14.7031 12.1094H17.3633L17.457 12.0117C17.5859 11.8867 17.5859 11.707 17.457 11.582L17.3633 11.4844H14.6641H11.9649L11.8711 11.582Z" fill="#C8C8C8"/>
<path d="M7.73047 14.1367C7.40234 14.2226 7.125 14.4492 6.96484 14.7656C6.84375 15.0078 6.83593 15.4492 6.95312 15.707C7.15234 16.1406 7.53515 16.3867 8.0039 16.3828C8.33593 16.3828 8.57422 16.2851 8.79297 16.0664C9.23437 15.625 9.25781 14.9492 8.84765 14.4805C8.60547 14.207 8.07812 14.043 7.73047 14.1367ZM8.26172 14.8164C8.55859 15.0117 8.60156 15.3672 8.35937 15.6094C8.1914 15.7773 8 15.8125 7.80078 15.7187C7.51172 15.5742 7.40234 15.2734 7.54687 15.0039C7.6875 14.7422 8.01953 14.6523 8.26172 14.8164Z" fill="#C8C8C8"/>
<path d="M3.26953 15.9844L2.35937 16.8906L2.13281 16.668C1.87109 16.4102 1.73437 16.3789 1.57812 16.543C1.40234 16.7266 1.44922 16.8437 1.86719 17.2617C2.41797 17.8086 2.29297 17.8594 3.53515 16.6172C4.09765 16.0625 4.57812 15.5547 4.60547 15.4922C4.64062 15.4102 4.64453 15.3437 4.61719 15.2656C4.57031 15.1328 4.48047 15.0781 4.30859 15.0781C4.1914 15.0781 4.08594 15.1719 3.26953 15.9844Z" fill="#C8C8C8"/>
<path d="M1.81641 15.2187C1.5 15.3047 1.23438 15.4609 0.972656 15.7226C0.585938 16.1094 0.40625 16.5429 0.40625 17.0898C0.40625 17.8164 0.816406 18.4844 1.46875 18.8125C2.63672 19.4023 4.05078 18.6562 4.24219 17.3515C4.28125 17.0742 4.28125 17.0273 4.21875 16.9375C4.12891 16.7969 3.97656 16.7422 3.83984 16.7969C3.71094 16.8515 3.66016 16.9531 3.62891 17.2304C3.58203 17.6758 3.28516 18.082 2.875 18.2734C2.69531 18.3554 2.59375 18.375 2.33594 18.3789C2.05078 18.3789 1.99219 18.3672 1.75391 18.2422C0.574219 17.6406 0.90625 15.9453 2.23047 15.7812C2.42969 15.7539 2.51172 15.7265 2.5625 15.664C2.66406 15.539 2.65234 15.3437 2.54297 15.2422C2.43359 15.1406 2.14453 15.1289 1.81641 15.2187Z" fill="#C8C8C8"/>
<path d="M7.41797 16.7344C6.91407 16.8359 6.58594 16.9961 6.28516 17.289C5.94141 17.6211 5.71875 18.1133 5.66407 18.6758C5.625 19.0312 5.6836 19.2265 5.89063 19.4297C6.23438 19.7773 6.82032 19.9531 7.73829 19.9883C9.14844 20.043 10.1133 19.6914 10.2422 19.082C10.2813 18.8945 10.2305 18.4062 10.1484 18.1445C9.92188 17.4492 9.40625 16.9648 8.69141 16.7773C8.34766 16.6914 7.75 16.668 7.41797 16.7344ZM8.42969 17.3633C8.96094 17.4765 9.26954 17.707 9.47266 18.1445C9.625 18.4609 9.67188 18.9062 9.57032 19.0195C9.38282 19.2265 8.71094 19.375 7.98829 19.375C7.23047 19.3711 6.61329 19.2383 6.375 19.0273L6.25391 18.918L6.30079 18.6289C6.39063 18.0742 6.63672 17.707 7.0625 17.5C7.44922 17.3125 7.94922 17.2617 8.42969 17.3633Z" fill="#C8C8C8"/>
<path d="M11.8711 17.3242C11.8086 17.3828 11.7734 17.4648 11.7734 17.5391C11.7734 17.6133 11.8086 17.6953 11.8711 17.7539L11.9648 17.8516H13.9805H15.9961L16.0898 17.7539C16.1523 17.6953 16.1875 17.6133 16.1875 17.5391C16.1875 17.4648 16.1523 17.3828 16.0898 17.3242L15.9961 17.2266H13.9805H11.9648L11.8711 17.3242Z" fill="#C8C8C8"/>
<path d="M11.9492 18.5625C11.75 18.668 11.7149 18.8906 11.8711 19.043L11.9649 19.1406H14.6641H17.3633L17.457 19.043C17.586 18.918 17.586 18.7383 17.457 18.6133L17.3633 18.5156H14.6953C12.8399 18.5195 12.0039 18.5312 11.9492 18.5625Z" fill="#C8C8C8"/>
</svg>
