<svg width="20" height="20" viewBox="0 0 20 20" fill="none" xmlns="http://www.w3.org/2000/svg">
<path d="M8.33334 5.16666C8.33334 3.58332 7.33334 2.16666 5.83334 1.66666V4.74999H3.33334V1.66666C1.83334 2.16666 0.833344 3.58332 0.833344 5.16666C0.833344 6.74999 1.83334 8.16666 3.33334 8.66666V17.8333C3.33334 18.1667 3.50001 18.3333 3.75001 18.3333H5.41668C5.66668 18.3333 5.83334 18.1667 5.83334 17.9167V8.74999C7.33334 8.24999 8.33334 6.83332 8.33334 5.16666ZM13.3333 6.66666C10.0833 6.74999 7.50001 9.33332 7.50001 12.5C7.50001 15.75 10.0833 18.3333 13.3333 18.3333C16.5833 18.3333 19.1667 15.75 19.1667 12.5C19.1667 9.24999 16.5833 6.66666 13.3333 6.66666ZM13.3333 16.6667C11 16.6667 9.16668 14.8333 9.16668 12.5C9.16668 10.1667 11 8.33332 13.3333 8.33332C15.6667 8.33332 17.5 10.1667 17.5 12.5C17.5 14.8333 15.6667 16.6667 13.3333 16.6667ZM12.5 9.16666V13.3333L15.5 15.1667L16.1667 14.1667L13.75 12.75V9.16666H12.5Z" fill="#363636"/>
</svg>
