<svg width="19" height="18" viewBox="0 0 19 18" fill="none" xmlns="http://www.w3.org/2000/svg">
<path fill-rule="evenodd" clip-rule="evenodd" d="M9.45246 0.0416049H9.54746C11.4716 0.0416049 12.9791 0.0416049 14.1558 0.199938C15.3591 0.361605 16.3091 0.699938 17.055 1.44494C17.8008 2.19077 18.1383 3.14077 18.3 4.34494C18.4583 5.52077 18.4583 7.02827 18.4583 8.95244V9.02577C18.4583 10.6166 18.4583 11.9183 18.3716 12.9783C18.285 14.0449 18.1075 14.9341 17.7091 15.6741C17.5347 15.9997 17.3166 16.2933 17.055 16.5549C16.3091 17.3008 15.3591 17.6383 14.155 17.7999C12.9791 17.9583 11.4716 17.9583 9.54746 17.9583H9.45246C7.52829 17.9583 6.02079 17.9583 4.84413 17.7999C3.64079 17.6383 2.69079 17.2999 1.94496 16.5549C1.28413 15.8941 0.942459 15.0716 0.761626 14.0499C0.582459 13.0474 0.549959 11.7999 0.543293 10.2516C0.542182 9.85716 0.541626 9.43994 0.541626 8.99994V8.95161C0.541626 7.02744 0.541626 5.51994 0.699959 4.34327C0.861626 3.13994 1.19996 2.18994 1.94496 1.4441C2.69079 0.698272 3.64079 0.360772 4.84496 0.199105C6.02079 0.0407715 7.52829 0.0407715 9.45246 0.0407715M5.01079 1.43744C3.94579 1.58077 3.30329 1.8541 2.82913 2.32827C2.35413 2.80327 2.08163 3.44494 1.93829 4.51077C1.79329 5.5941 1.79163 7.01744 1.79163 8.9991V9.70244L2.62579 8.97244C2.99169 8.65215 3.46564 8.48291 3.95165 8.499C4.43766 8.51509 4.89939 8.71531 5.24329 9.05911L8.81829 12.6341C9.09572 12.9115 9.46209 13.0821 9.85292 13.1159C10.2438 13.1498 10.634 13.0447 10.955 12.8191L11.2033 12.6441C11.6664 12.3187 12.2261 12.1601 12.7911 12.1941C13.356 12.2282 13.8927 12.4529 14.3133 12.8316L16.6716 14.9541C16.91 14.4558 17.0508 13.8008 17.1258 12.8766C17.2075 11.8724 17.2083 10.6208 17.2083 8.9991C17.2083 7.01744 17.2066 5.5941 17.0616 4.51077C16.9183 3.44494 16.645 2.80244 16.1708 2.32744C15.6958 1.85327 15.0541 1.58077 13.9883 1.43744C12.905 1.29244 11.4816 1.29077 9.49996 1.29077C7.51829 1.29077 6.09413 1.29244 5.01079 1.43744Z" fill="#363636"/>
</svg>
