<svg width="46" height="47" viewBox="0 0 46 47" fill="none" xmlns="http://www.w3.org/2000/svg">
<path d="M2.323 0L0 2.323L4.09223 9.39992L6.74608 9.01069L22.9452 25.2115L21.5634 26.5385C20.8557 27.2462 20.8557 28.3183 21.5634 29.026L22.2817 29.7461C22.9894 30.4538 24.0722 30.4538 24.6029 29.7461L26.7048 31.8462C26.5278 32.9077 26.7048 34.1692 27.5894 35.0538L37.1538 44.5634C39.1 46.5095 42.2846 46.5095 44.2308 44.5634C46.5308 42.4403 46.5095 39.2663 44.5634 37.3202L35.0538 27.7539C34.1692 26.8693 32.9077 26.5155 31.8462 26.8693L29.5232 24.7692C30.0539 24.0615 30.0539 22.9788 29.5232 22.4462L28.8597 21.7845C28.6989 21.6168 28.5058 21.4834 28.292 21.3922C28.0783 21.301 27.8483 21.254 27.6159 21.254C27.3835 21.254 27.1536 21.301 26.9398 21.3922C26.7261 21.4834 26.533 21.6168 26.3722 21.7845L25.2115 22.9452L9.01246 6.74608L9.39815 4.09223L2.323 0ZM36.823 0.0548462C33.3323 -0.235308 28.704 2.07885 26.5385 4.09046C23.874 6.75492 24.3092 10.2385 26.427 13.6018L22.6692 17.3615L25.323 20.3462C26.7384 19.1077 28.8261 19.1077 30.2415 20.3462L30.9615 21.0645L31.1278 21.2308L32.6759 19.6827C35.8747 21.5634 39.2044 21.8341 41.7432 19.2952C44.2202 16.9952 46.9058 11.3231 45.6674 7.96154L40.6923 13.1029C39.9846 13.8106 38.9125 13.8106 38.2048 13.1029L33.0616 7.96154C32.8939 7.8007 32.7604 7.60761 32.6693 7.39386C32.5781 7.18012 32.5311 6.95014 32.5311 6.71777C32.5311 6.48539 32.5781 6.25542 32.6693 6.04168C32.7604 5.82793 32.8939 5.63484 33.0616 5.474L38.2065 0.332615C37.7642 0.176923 37.3219 0.0973077 36.823 0.0548462ZM17.3615 22.1154L10.9462 28.5288C10.2568 28.3763 9.55227 28.3021 8.84615 28.3077C3.89231 28.3077 0 32.2 0 37.1538C0 42.1077 3.89231 46 8.84615 46C13.8 46 17.6923 42.1077 17.6923 37.1538C17.6923 36.2462 17.549 35.374 17.3048 34.5548L21.0645 30.7952L20.5125 30.0769C19.0971 28.6615 19.1077 26.5172 20.3462 25.1001L17.3615 22.1154ZM31.073 30.1884C31.2942 30.1884 31.5029 30.2308 31.6798 30.4095L42.1307 40.8586C42.4845 41.2125 42.4845 41.7751 42.1307 42.1289C41.7768 42.4828 41.2107 42.4828 40.8568 42.1289L30.4095 31.6798C30.0557 31.326 30.0557 30.7634 30.4095 30.4095C30.5865 30.2326 30.8518 30.1884 31.073 30.1884ZM10.0634 32.5627L13.4355 35.9366L12.2183 40.5242L7.63069 41.7415L4.25677 38.3675L5.474 33.7799L10.0634 32.5627Z" fill="#60BF8F"/>
</svg>
