<svg width="21" height="20" viewBox="0 0 21 20" fill="none" xmlns="http://www.w3.org/2000/svg">
<path d="M17.1666 3.33341H14.525L13 1.66675H7.99996L6.47496 3.33341H3.83329C3.39127 3.33341 2.96734 3.50901 2.65478 3.82157C2.34222 4.13413 2.16663 4.55805 2.16663 5.00008V15.0001C2.16663 15.4421 2.34222 15.866 2.65478 16.1786C2.96734 16.4912 3.39127 16.6667 3.83329 16.6667H17.1666C17.6087 16.6667 18.0326 16.4912 18.3451 16.1786C18.6577 15.866 18.8333 15.4421 18.8333 15.0001V5.00008C18.8333 4.55805 18.6577 4.13413 18.3451 3.82157C18.0326 3.50901 17.6087 3.33341 17.1666 3.33341ZM17.1666 15.0001H3.83329V5.00008H7.20829L8.73329 3.33341H12.2666L13.7916 5.00008H17.1666V15.0001ZM10.5 5.83341C9.39489 5.83341 8.33508 6.2724 7.55368 7.0538C6.77228 7.8352 6.33329 8.89501 6.33329 10.0001C6.33329 11.1051 6.77228 12.165 7.55368 12.9464C8.33508 13.7278 9.39489 14.1667 10.5 14.1667C11.605 14.1667 12.6648 13.7278 13.4462 12.9464C14.2276 12.165 14.6666 11.1051 14.6666 10.0001C14.6666 8.89501 14.2276 7.8352 13.4462 7.0538C12.6648 6.2724 11.605 5.83341 10.5 5.83341ZM10.5 12.5001C9.83692 12.5001 9.20103 12.2367 8.73219 11.7678C8.26335 11.299 7.99996 10.6631 7.99996 10.0001C7.99996 9.33704 8.26335 8.70115 8.73219 8.23231C9.20103 7.76347 9.83692 7.50008 10.5 7.50008C11.163 7.50008 11.7989 7.76347 12.2677 8.23231C12.7366 8.70115 13 9.33704 13 10.0001C13 10.6631 12.7366 11.299 12.2677 11.7678C11.7989 12.2367 11.163 12.5001 10.5 12.5001Z" fill="#363636"/>
</svg>
