<svg width="18" height="17" viewBox="0 0 18 17" fill="none" xmlns="http://www.w3.org/2000/svg">
<path d="M15.1875 0.625C15.873 0.677734 15.873 0.677734 16.5938 0.90625C16.9625 1.39494 16.9625 1.39494 17.1562 2.03125C16.9143 2.70107 16.9143 2.70107 16.4762 3.4408C16.3165 3.71393 16.1569 3.98707 15.9924 4.26848C15.8196 4.55113 15.6468 4.83378 15.4688 5.125C15.305 5.39569 15.1413 5.66638 14.9726 5.94527C14.4589 6.78351 13.937 7.61604 13.4121 8.44727C13.2275 8.74061 13.0429 9.03396 12.8526 9.3362C12.4866 9.91721 12.12 10.4979 11.753 11.0784C11.314 11.7736 10.8777 12.4704 10.4425 13.1681C10.2196 13.5223 9.99662 13.8764 9.77344 14.2305C9.58636 14.5285 9.39929 14.8265 9.20654 15.1335C8.71875 15.8125 8.71875 15.8125 7.875 16.375C6.8401 16.51 6.36254 16.4983 5.49976 15.8905C4.34984 14.8654 3.46367 13.6581 2.53125 12.4375C2.30991 12.1547 2.30991 12.1547 2.08411 11.8662C1.40069 10.9629 0.84375 10.2186 0.84375 9.0625C1.23344 8.26456 1.62282 7.72093 2.25 7.09375C3.07624 6.92162 3.42491 6.87188 4.21875 7.09375C5.22729 7.76611 6.13172 8.53291 7.03125 9.34375C7.3548 9.0202 7.67825 8.69656 8.00134 8.37256C8.29945 8.0752 8.59909 7.77936 8.90002 7.48486C9.92814 6.47299 10.8967 5.42828 11.8389 4.33618C14.2297 1.58277 14.2297 1.58277 15.1875 0.625ZM15.4688 1.75C13.6129 3.72516 11.8135 5.71312 10.1195 7.82983C9.62525 8.42451 9.11638 8.96556 8.56055 9.50195C8.33432 9.72818 8.10809 9.95441 7.875 10.1875C7.875 10.3731 7.875 10.5588 7.875 10.75C6.64425 10.613 6.14561 10.256 5.32617 9.34375C4.39767 8.29696 4.39767 8.29696 3.09375 7.9375C2.46162 8.31765 2.46162 8.31765 1.96875 8.78125C1.96875 10.4377 2.82529 11.2135 3.90234 12.3463C4.61462 13.1254 5.18875 13.9612 5.76013 14.8468C6.17244 15.3137 6.17244 15.3137 6.85664 15.3439C7.61546 15.3184 7.61546 15.3184 8.10489 14.7896C8.25671 14.5786 8.40852 14.3676 8.56494 14.1503C8.73262 13.9182 8.9003 13.6861 9.07306 13.447C9.81603 12.3415 10.5094 11.2153 11.1797 10.0645C11.4695 9.57398 11.7596 9.08362 12.0498 8.59338C12.1955 8.34635 12.3413 8.09932 12.4915 7.8448C13.2149 6.62668 13.9547 5.41869 14.6953 4.21094C14.8297 3.99144 14.9641 3.77194 15.1026 3.54578C15.412 3.04081 15.7216 2.53601 16.0312 2.03125C15.8456 1.93844 15.66 1.84563 15.4688 1.75Z" fill="#221F1F"/>
</svg>
