<svg width="22" height="22" viewBox="0 0 22 22" fill="none" xmlns="http://www.w3.org/2000/svg">
<g filter="url(#filter0_d_3485_457)">
<path d="M11.4801 6.19997C11.1601 6.11997 10.8401 5.95997 10.6001 5.71997C10.3601 5.63997 10.2801 5.39998 10.2801 5.23998C10.2801 5.07998 10.3601 4.83997 10.5201 4.75997C10.7601 4.59997 11.0001 4.43998 11.2401 4.51998C11.7201 4.51998 12.1201 4.75997 12.3601 5.07997L13.0801 4.11998C12.8401 3.87998 12.6001 3.71998 12.3601 3.55998C12.1201 3.39998 11.8001 3.31998 11.4801 3.31998V2.19998H10.5201V3.31998C10.1201 3.39998 9.7201 3.63998 9.4001 3.95997C9.0801 4.35997 8.8401 4.83998 8.9201 5.31998C8.9201 5.79997 9.0801 6.27997 9.4001 6.59997C9.8001 6.99997 10.3601 7.23997 10.8401 7.47997C11.0801 7.55997 11.4001 7.71997 11.6401 7.87997C11.8001 8.03997 11.8801 8.27997 11.8801 8.51997C11.8801 8.75997 11.8001 8.99997 11.6401 9.23997C11.4001 9.47997 11.0801 9.55997 10.8401 9.55997C10.5201 9.55997 10.1201 9.47997 9.8801 9.23997C9.6401 9.07997 9.4001 8.83997 9.2401 8.59997L8.4401 9.47997C8.6801 9.79997 8.9201 10.04 9.2401 10.28C9.6401 10.52 10.1201 10.76 10.6001 10.76V11.8H11.4801V10.6C11.9601 10.52 12.3601 10.28 12.6801 9.95997C13.0801 9.55997 13.3201 8.91997 13.3201 8.35997C13.3201 7.87997 13.1601 7.31997 12.7601 6.99997C12.3601 6.59997 11.9601 6.35997 11.4801 6.19997ZM11.0001 0.599976C7.4801 0.599976 4.6001 3.47998 4.6001 6.99997C4.6001 10.52 7.4801 13.4 11.0001 13.4C14.5201 13.4 17.4001 10.52 17.4001 6.99997C17.4001 3.47998 14.5201 0.599976 11.0001 0.599976ZM11.0001 12.52C7.9601 12.52 5.4801 10.04 5.4801 6.99997C5.4801 3.95998 7.9601 1.47998 11.0001 1.47998C14.0401 1.47998 16.5201 3.95998 16.5201 6.99997C16.5201 10.04 14.0401 12.52 11.0001 12.52Z" fill="black"/>
</g>
<defs>
<filter id="filter0_d_3485_457" x="0.600098" y="0.599976" width="20.8" height="20.8" filterUnits="userSpaceOnUse" color-interpolation-filters="sRGB">
<feFlood flood-opacity="0" result="BackgroundImageFix"/>
<feColorMatrix in="SourceAlpha" type="matrix" values="0 0 0 0 0 0 0 0 0 0 0 0 0 0 0 0 0 0 127 0" result="hardAlpha"/>
<feOffset dy="4"/>
<feGaussianBlur stdDeviation="2"/>
<feComposite in2="hardAlpha" operator="out"/>
<feColorMatrix type="matrix" values="0 0 0 0 0 0 0 0 0 0 0 0 0 0 0 0 0 0 0.25 0"/>
<feBlend mode="normal" in2="BackgroundImageFix" result="effect1_dropShadow_3485_457"/>
<feBlend mode="normal" in="SourceGraphic" in2="effect1_dropShadow_3485_457" result="shape"/>
</filter>
</defs>
</svg>
