<svg width="52" height="48" viewBox="0 0 52 48" fill="none" xmlns="http://www.w3.org/2000/svg">
<path d="M26 34C30.1421 34 33.5 30.6421 33.5 26.5C33.5 22.3579 30.1421 19 26 19C21.8579 19 18.5 22.3579 18.5 26.5C18.5 30.6421 21.8579 34 26 34Z" stroke="#60BF8F" stroke-width="1.5"/>
<path d="M20.445 46.5H31.555C39.3575 46.5 43.26 46.5 46.0625 44.6625C47.2721 43.8703 48.3136 42.8475 49.1275 41.6525C51 38.9025 51 35.07 51 27.41C51 19.75 51 15.9175 49.1275 13.1675C48.3136 11.9725 47.2721 10.9496 46.0625 10.1575C44.2625 8.97499 42.0075 8.55249 38.555 8.40249C36.9075 8.40249 35.49 7.17749 35.1675 5.58999C34.921 4.42717 34.2807 3.38508 33.3546 2.63987C32.4286 1.89466 31.2736 1.49202 30.085 1.49999H21.915C19.445 1.49999 17.3175 3.21249 16.8325 5.58999C16.51 7.17749 15.0925 8.40249 13.445 8.40249C9.995 8.55249 7.74 8.97749 5.9375 10.1575C4.72884 10.9499 3.68818 11.9727 2.875 13.1675C1 15.9175 1 19.7475 1 27.41C1 35.0725 1 38.9 2.8725 41.6525C3.6825 42.8425 4.7225 43.865 5.9375 44.6625C8.74 46.5 12.6425 46.5 20.445 46.5Z" stroke="#60BF8F" stroke-width="1.5"/>
<path d="M43.5 19H41" stroke="#60BF8F" stroke-width="1.5" stroke-linecap="round"/>
</svg>
