<svg width="63" height="55" viewBox="0 0 63 55" fill="none" xmlns="http://www.w3.org/2000/svg">
<path d="M32.6462 13.3768L32.7386 13.4043L32.743 13.3993C33.1439 13.4679 33.5398 13.2268 33.6576 12.8291C34.7176 9.26746 38.0571 6.77924 41.7777 6.77924C42.2267 6.77924 42.5908 6.41508 42.5908 5.96611C42.5908 5.51712 42.2267 5.15298 41.7777 5.15298C37.191 5.15298 33.3367 8.20682 32.0991 12.3656C31.9708 12.7961 32.216 13.2485 32.6462 13.3768Z" fill="#60BF8F" stroke="#F9FFF9" stroke-width="0.3"/>
<path d="M51.0609 38.4593H47.0822C46.7161 38.4593 46.4191 38.1624 46.4191 37.7962C46.4191 37.4301 46.716 37.1331 47.0822 37.1331H51.0609C56.5453 37.1331 61.0077 32.6707 61.0077 27.1862C61.0077 21.7018 56.5453 17.2394 51.0609 17.2394H50.9652C50.7729 17.2394 50.5901 17.1561 50.4641 17.0106C50.3381 16.8652 50.2812 16.6724 50.3087 16.482C50.3679 16.069 50.3978 15.6541 50.3978 15.2501C50.3978 10.4969 46.5303 6.62942 41.7771 6.62942C39.928 6.62942 38.1645 7.20728 36.6772 8.30095C36.3503 8.5411 35.8862 8.43452 35.6972 8.07501C31.485 0.0541018 20.4831 -1.02302 14.7791 5.95447C12.3763 8.89398 11.4322 12.7178 12.1887 16.4447C12.2721 16.8563 11.9571 17.2399 11.5389 17.2399H11.2731C5.78869 17.2399 1.32631 21.7023 1.32631 27.1868C1.32631 32.6712 5.78869 37.1336 11.2731 37.1336H15.2518C15.618 37.1336 15.915 37.4306 15.915 37.7967C15.915 38.1628 15.618 38.4598 15.2518 38.4598H11.2731C5.05727 38.4598 0 33.4026 0 27.1867C0 21.1452 4.77728 16.1983 10.7526 15.9255C10.1913 12.0589 11.2646 8.15882 13.7522 5.11515C19.8591 -2.35586 31.5625 -1.51846 36.5097 6.81226C38.088 5.82278 39.894 5.3037 41.7769 5.3037C47.5356 5.3037 52.0989 10.2052 51.6996 15.9316C57.6199 16.2637 62.3337 21.1845 62.3337 27.1862C62.3337 33.4026 57.2765 38.4594 51.0606 38.4594L51.0609 38.4593Z" fill="#60BF8F"/>
<path d="M14.3498 37.4218C14.3498 46.6459 21.854 54.15 31.078 54.15C40.3022 54.15 47.8063 46.6458 47.8063 37.4218C47.8063 28.1976 40.3022 20.6935 31.078 20.6935C21.8538 20.6935 14.3498 28.1977 14.3498 37.4218ZM15.9763 37.4218C15.9763 29.0949 22.7511 22.3201 31.078 22.3201C39.4048 22.3201 46.1797 29.0948 46.1797 37.4218C46.1797 45.7486 39.4048 52.5235 31.078 52.5235C22.7512 52.5235 15.9763 45.7487 15.9763 37.4218Z" fill="#60BF8F" stroke="#F9FFF9" stroke-width="0.3"/>
<path d="M30.7458 44.0955C30.7458 44.4464 31.0303 44.731 31.3812 44.731C31.7321 44.731 32.0167 44.4468 32.0167 44.0955V31.4729C32.0167 31.122 31.7321 30.8374 31.3812 30.8374C31.0303 30.8374 30.7458 31.122 30.7458 31.4729V44.0955Z" fill="#60BF8F" stroke="#60BF8F" stroke-width="0.3"/>
<path d="M31.3811 32.3729L27.9467 35.8073L31.3811 32.3729ZM31.3811 32.3729L34.8156 35.8074C34.9395 35.9313 35.1026 35.9935 35.2649 35.9935L31.3811 32.3729ZM27.0479 35.8074C27.2961 36.0556 27.6987 36.0557 27.9467 35.8074L35.2649 35.9935C35.4269 35.9935 35.5902 35.9319 35.7143 35.8073C35.9625 35.5591 35.9625 35.1569 35.7143 34.9087L31.8305 31.0248C31.5823 30.7767 31.1797 30.7765 30.9317 31.0248C30.9317 31.0249 30.9317 31.0249 30.9316 31.0249L27.0479 34.9087C26.7997 35.1569 26.7997 35.5591 27.0479 35.8074Z" fill="#60BF8F" stroke="#60BF8F" stroke-width="0.3"/>
</svg>
