<svg width="15" height="14" viewBox="0 0 15 14" fill="none" xmlns="http://www.w3.org/2000/svg">
<path d="M0.928019 13.2844C0.75823 13.2746 0.593867 13.221 0.450948 13.1288C0.308028 13.0367 0.191421 12.909 0.112486 12.7584C0.0335503 12.6077 -0.00502384 12.4392 0.000524149 12.2692C0.00607214 12.0993 0.0555571 11.9336 0.144148 11.7884L7.03931 0.472315C7.13215 0.319935 7.26466 0.195648 7.42267 0.11274C7.58068 0.0298322 7.75825 -0.00858076 7.9364 0.00160622C8.11455 0.0117932 8.28658 0.0701996 8.43411 0.170579C8.58163 0.270958 8.69911 0.409539 8.77398 0.57151L14.3296 12.6021C14.4012 12.7565 14.4315 12.9267 14.4176 13.0963C14.4037 13.2658 14.3461 13.4288 14.2504 13.5695C14.1547 13.7101 14.0242 13.8235 13.8715 13.8986C13.7189 13.9738 13.5494 14.008 13.3796 13.9981L0.928019 13.2844Z" fill="#EC5865"/>
<path d="M7.69812 8.73438C7.67378 8.81062 7.62481 8.87662 7.55889 8.92203C7.49298 8.96743 7.41386 8.98966 7.33395 8.98523C7.25404 8.98081 7.17785 8.94997 7.11736 8.89756C7.05687 8.84515 7.0155 8.77414 6.99973 8.69567C6.29167 5.03438 6.34006 5.29164 6.34006 5.25374C6.33895 5.08838 6.37175 4.92455 6.43644 4.77238C6.50114 4.6202 6.59634 4.48289 6.71618 4.36895C6.83602 4.25501 6.97795 4.16686 7.13319 4.10992C7.28844 4.05299 7.45371 4.02848 7.6188 4.03792C7.78389 4.04737 7.94528 4.09056 8.09303 4.16483C8.24077 4.2391 8.37171 4.34287 8.47777 4.46974C8.58384 4.5966 8.66276 4.74386 8.70968 4.90243C8.75659 5.06099 8.7705 5.22749 8.75054 5.39164C8.74328 5.42873 8.82151 5.17631 7.69812 8.73438Z" fill="#FFFDFC"/>
<path d="M8.15859 10.7892C8.14792 10.9754 8.08228 11.1542 7.96998 11.303C7.85768 11.4519 7.70376 11.5641 7.52769 11.6254C7.35161 11.6868 7.16129 11.6946 6.9808 11.6478C6.80031 11.601 6.63774 11.5017 6.51367 11.3625C6.38959 11.2234 6.30958 11.0505 6.28375 10.8658C6.25792 10.6812 6.28742 10.493 6.36854 10.3251C6.44966 10.1572 6.57875 10.0171 6.73947 9.92261C6.9002 9.82808 7.08534 9.78333 7.2715 9.79403C7.52109 9.80838 7.75477 9.92128 7.92113 10.1079C8.08749 10.2945 8.17291 10.5396 8.15859 10.7892Z" fill="#FFFDFC"/>
</svg>
