<svg width="24" height="24" viewBox="0 0 24 24" fill="none" xmlns="http://www.w3.org/2000/svg">
<path fill-rule="evenodd" clip-rule="evenodd" d="M10.0542 2.34437C11.1754 1.38883 12.8246 1.38883 13.9459 2.34437L15.2173 3.42791C15.3775 3.5644 15.5766 3.64689 15.7864 3.66363L17.4517 3.79651C18.9202 3.9137 20.0863 5.07983 20.2035 6.54836L20.3364 8.2136C20.3531 8.42337 20.4356 8.62251 20.5721 8.78267L21.6556 10.0541C22.6112 11.1754 22.6112 12.8246 21.6556 13.9458L20.5721 15.2173C20.4356 15.3775 20.3531 15.5766 20.3364 15.7864L20.2035 17.4516C20.0863 18.9202 18.9202 20.0863 17.4517 20.2035L15.7864 20.3364C15.5766 20.3531 15.3775 20.4356 15.2173 20.5721L13.9459 21.6556C12.8246 22.6112 11.1754 22.6112 10.0542 21.6556L8.7827 20.5721C8.62254 20.4356 8.4234 20.3531 8.21363 20.3364L6.54839 20.2035C5.07986 20.0863 3.91373 18.9202 3.79654 17.4516L3.66366 15.7864C3.64692 15.5766 3.56443 15.3775 3.42794 15.2173L2.3444 13.9458C1.38886 12.8246 1.38886 11.1754 2.3444 10.0541L3.42794 8.78267C3.56443 8.62251 3.64692 8.42337 3.66366 8.2136L3.79654 6.54836C3.91373 5.07983 5.07986 3.9137 6.54839 3.79651L8.21363 3.66363C8.4234 3.64689 8.62254 3.5644 8.7827 3.42791L10.0542 2.34437ZM12.6486 3.8666C12.2749 3.54809 11.7252 3.54809 11.3514 3.8666L10.0799 4.95014C9.59945 5.35961 9.00203 5.60707 8.37273 5.65729L6.70749 5.79017C6.21798 5.82924 5.82927 6.21795 5.79021 6.70746L5.65732 8.3727C5.6071 9.002 5.35964 9.59942 4.95017 10.0799L3.86663 11.3514C3.54812 11.7251 3.54812 12.2749 3.86663 12.6486L4.95017 13.9201C5.35964 14.4006 5.6071 14.998 5.65732 15.6273L5.79021 17.2925C5.82927 17.782 6.21798 18.1707 6.70749 18.2098L8.37273 18.3427C9.00203 18.3929 9.59945 18.6404 10.0799 19.0498L11.3514 20.1334C11.7252 20.4519 12.2749 20.4519 12.6486 20.1334L13.9201 19.0498C14.4006 18.6404 14.998 18.3929 15.6273 18.3427L17.2926 18.2098C17.7821 18.1707 18.1708 17.782 18.2098 17.2925L18.3427 15.6273C18.3929 14.998 18.6404 14.4006 19.0499 13.9201L20.1334 12.6486C20.4519 12.2749 20.4519 11.7251 20.1334 11.3514L19.0499 10.0799C18.6404 9.59942 18.3929 9.002 18.3427 8.3727L18.2098 6.70746C18.1708 6.21795 17.7821 5.82924 17.2926 5.79017L15.6273 5.65729C14.998 5.60707 14.4006 5.35961 13.9201 4.95014L12.6486 3.8666Z" fill="#F7F7F7"/>
<path d="M11 9.5C11 10.3284 10.3284 11 9.5 11C8.67157 11 8 10.3284 8 9.5C8 8.67157 8.67157 8 9.5 8C10.3284 8 11 8.67157 11 9.5Z" fill="#F7F7F7"/>
<path d="M16 14.5C16 15.3284 15.3284 16 14.5 16C13.6716 16 13 15.3284 13 14.5C13 13.6716 13.6716 13 14.5 13C15.3284 13 16 13.6716 16 14.5Z" fill="#F7F7F7"/>
<path fill-rule="evenodd" clip-rule="evenodd" d="M15.1402 8.23177C15.5645 8.58534 15.6218 9.2159 15.2682 9.64018L10.2682 15.6402C9.91468 16.0645 9.28412 16.1218 8.85984 15.7682C8.43556 15.4147 8.37824 14.7841 8.7318 14.3598L13.7318 8.35981C14.0854 7.93553 14.7159 7.87821 15.1402 8.23177Z" fill="#F7F7F7"/>
</svg>
