<svg width="24" height="24" viewBox="0 0 24 24" fill="none" xmlns="http://www.w3.org/2000/svg">
<path fill-rule="evenodd" clip-rule="evenodd" d="M8.32467 6.99838L6.81703 4.94252C6.71451 4.80271 6.52076 4.76708 6.3752 4.86126C4.40278 6.13754 3.86059 8.08714 4.65191 9.52434C5.51734 11.0961 6.8521 13.0237 8.89947 15.0711C10.9468 17.1184 12.8744 18.4532 14.4462 19.3186C15.8834 20.11 17.833 19.5678 19.1093 17.5953C19.2035 17.4498 19.1678 17.256 19.028 17.1535L16.9722 15.6459C16.6698 15.4242 16.2689 15.3902 15.9336 15.5579L15.1141 15.9676C14.4171 16.3161 13.4617 16.4385 12.5573 15.9732C11.9526 15.6621 11.0207 15.071 9.96013 14.0104C8.89958 12.9499 8.30841 12.0179 7.99733 11.4132C7.53204 10.5088 7.65447 9.55339 8.00296 8.85641L8.41269 8.03696C8.58035 7.70164 8.54637 7.3007 8.32467 6.99838ZM5.2887 3.18212C2.74819 4.82598 1.44043 7.83826 2.89993 10.489C3.85246 12.219 5.29929 14.2993 7.48525 16.4853C9.67121 18.6712 11.7516 20.1181 13.4816 21.0706C16.1323 22.5301 19.1446 21.2223 20.7884 18.6818C21.458 17.647 21.2047 16.2696 20.2107 15.5407L18.1549 14.0331C17.2479 13.368 16.0451 13.266 15.0392 13.769L14.2197 14.1787C13.9825 14.2973 13.7081 14.3161 13.4722 14.1948C13.0426 13.9737 12.2811 13.503 11.3743 12.5962C10.4675 11.6894 9.99683 10.928 9.77578 10.4983C9.65445 10.2625 9.67321 9.98806 9.79181 9.75084L10.2015 8.93139C10.7045 7.92542 10.6026 6.72262 9.93748 5.81565L8.42984 3.75979C7.70095 2.76584 6.32352 2.51253 5.2887 3.18212Z" fill="#F7F7F7"/>
</svg>
